<?xml version="1.0" encoding="UTF-8" standalone="no"?>
<!DOCTYPE svg PUBLIC "-//W3C//DTD SVG 1.1//EN"
 "http://www.w3.org/Graphics/SVG/1.1/DTD/svg11.dtd">
<!-- Generated by graphviz version 5.0.0 (20220707.1540)
 -->
<!-- Title: dependencies Pages: 1 -->
<svg width="392pt" height="174pt"
 viewBox="0.00 0.00 392.00 173.80" xmlns="http://www.w3.org/2000/svg" xmlns:xlink="http://www.w3.org/1999/xlink">
<g id="graph0" class="graph" transform="scale(1 1) rotate(0) translate(4 169.8)">
<title>dependencies</title>
<polygon fill="white" stroke="transparent" points="-4,4 -4,-169.8 388,-169.8 388,4 -4,4"/>
<text text-anchor="middle" x="192" y="-8.2" font-family="sans-serif" font-size="14.00">dependencies</text>
<g id="clust1" class="cluster">
<title>cluster_DashboardModule</title>
<polygon fill="none" stroke="black" stroke-dasharray="1,5" points="8,-32.8 8,-157.8 376,-157.8 376,-32.8 8,-32.8"/>
</g>
<g id="clust2" class="cluster">
<title>cluster_DashboardModule_declarations</title>
<polygon fill="none" stroke="black" points="210,-40.8 210,-92.8 368,-92.8 368,-40.8 210,-40.8"/>
</g>
<g id="clust4" class="cluster">
<title>cluster_DashboardModule_imports</title>
<polygon fill="none" stroke="black" points="16,-40.8 16,-92.8 202,-92.8 202,-40.8 16,-40.8"/>
</g>
<!-- DashboardComponent -->
<g id="node1" class="node">
<title>DashboardComponent</title>
<polygon fill="#ffffb3" stroke="black" points="359.98,-84.8 218.02,-84.8 218.02,-48.8 359.98,-48.8 359.98,-84.8"/>
<text text-anchor="middle" x="289" y="-62.6" font-family="Times,serif" font-size="14.00">DashboardComponent</text>
</g>
<!-- DashboardModule -->
<g id="node2" class="node">
<title>DashboardModule</title>
<polygon fill="#8dd3c7" stroke="black" points="259.2,-149.8 256.2,-153.8 235.2,-153.8 232.2,-149.8 138.8,-149.8 138.8,-113.8 259.2,-113.8 259.2,-149.8"/>
<text text-anchor="middle" x="199" y="-127.6" font-family="Times,serif" font-size="14.00">DashboardModule</text>
</g>
<!-- DashboardComponent&#45;&gt;DashboardModule -->
<g id="edge1" class="edge">
<title>DashboardComponent&#45;&gt;DashboardModule</title>
<path fill="none" stroke="black" d="M238.56,-84.91C238.56,-84.91 238.56,-103.79 238.56,-103.79"/>
<polygon fill="black" stroke="black" points="235.06,-103.79 238.56,-113.79 242.06,-103.79 235.06,-103.79"/>
</g>
<!-- DashboardsRoutingModule -->
<g id="node3" class="node">
<title>DashboardsRoutingModule</title>
<polygon fill="#8dd3c7" stroke="black" points="194.27,-84.8 191.27,-88.8 170.27,-88.8 167.27,-84.8 23.73,-84.8 23.73,-48.8 194.27,-48.8 194.27,-84.8"/>
<text text-anchor="middle" x="109" y="-62.6" font-family="Times,serif" font-size="14.00">DashboardsRoutingModule</text>
</g>
<!-- DashboardsRoutingModule&#45;&gt;DashboardModule -->
<g id="edge2" class="edge">
<title>DashboardsRoutingModule&#45;&gt;DashboardModule</title>
<path fill="none" stroke="black" d="M166.64,-84.91C166.64,-84.91 166.64,-103.79 166.64,-103.79"/>
<polygon fill="black" stroke="black" points="163.14,-103.79 166.64,-113.79 170.14,-103.79 163.14,-103.79"/>
</g>
</g>
</svg>
