<?xml version="1.0" encoding="UTF-8" standalone="no"?>
<!DOCTYPE svg PUBLIC "-//W3C//DTD SVG 1.1//EN"
 "http://www.w3.org/Graphics/SVG/1.1/DTD/svg11.dtd">
<!-- Generated by graphviz version 5.0.0 (20220707.1540)
 -->
<!-- Title: dependencies Pages: 1 -->
<svg width="620pt" height="239pt"
 viewBox="0.00 0.00 620.00 238.80" xmlns="http://www.w3.org/2000/svg" xmlns:xlink="http://www.w3.org/1999/xlink">
<g id="graph0" class="graph" transform="scale(1 1) rotate(0) translate(4 234.8)">
<title>dependencies</title>
<polygon fill="white" stroke="transparent" points="-4,4 -4,-234.8 616,-234.8 616,4 -4,4"/>
<text text-anchor="middle" x="306" y="-8.2" font-family="sans-serif" font-size="14.00">dependencies</text>
<g id="clust1" class="cluster">
<title>cluster_OverlaysDemoModule</title>
<polygon fill="none" stroke="black" stroke-dasharray="1,5" points="8,-32.8 8,-222.8 604,-222.8 604,-32.8 8,-32.8"/>
</g>
<g id="clust4" class="cluster">
<title>cluster_OverlaysDemoModule_imports</title>
<polygon fill="none" stroke="black" points="390,-105.8 390,-157.8 596,-157.8 596,-105.8 390,-105.8"/>
</g>
<g id="clust3" class="cluster">
<title>cluster_OverlaysDemoModule_OverlaysDemoComponent_providers</title>
<polygon fill="none" stroke="black" points="16,-40.8 16,-157.8 382,-157.8 382,-40.8 16,-40.8"/>
</g>
<!-- OverlaysDemoComponent -->
<g id="node1" class="node">
<title>OverlaysDemoComponent</title>
<polygon fill="#ffffb3" stroke="black" points="365.08,-149.8 198.92,-149.8 198.92,-113.8 365.08,-113.8 365.08,-149.8"/>
<text text-anchor="middle" x="282" y="-127.6" font-family="Times,serif" font-size="14.00">OverlaysDemoComponent</text>
</g>
<!-- OverlaysDemoModule -->
<g id="node2" class="node">
<title>OverlaysDemoModule</title>
<polygon fill="#8dd3c7" stroke="black" points="459.3,-214.8 456.3,-218.8 435.3,-218.8 432.3,-214.8 314.7,-214.8 314.7,-178.8 459.3,-178.8 459.3,-214.8"/>
<text text-anchor="middle" x="387" y="-192.6" font-family="Times,serif" font-size="14.00">OverlaysDemoModule</text>
</g>
<!-- OverlaysDemoComponent&#45;&gt;OverlaysDemoModule -->
<g id="edge1" class="edge">
<title>OverlaysDemoComponent&#45;&gt;OverlaysDemoModule</title>
<path fill="none" stroke="black" d="M339.94,-149.91C339.94,-149.91 339.94,-168.79 339.94,-168.79"/>
<polygon fill="black" stroke="black" points="336.44,-168.79 339.94,-178.79 343.44,-168.79 336.44,-168.79"/>
</g>
<!-- ConfirmationService -->
<g id="node3" class="node">
<title>ConfirmationService</title>
<ellipse fill="#fdb462" stroke="black" cx="282" cy="-66.8" rx="92.05" ry="18"/>
<text text-anchor="middle" x="282" y="-62.6" font-family="Times,serif" font-size="14.00">ConfirmationService</text>
</g>
<!-- ConfirmationService&#45;&gt;OverlaysDemoComponent -->
<g id="edge2" class="edge">
<title>ConfirmationService&#45;&gt;OverlaysDemoComponent</title>
<path fill="none" stroke="black" d="M282,-84.91C282,-84.91 282,-103.79 282,-103.79"/>
<polygon fill="black" stroke="black" points="278.5,-103.79 282,-113.79 285.5,-103.79 278.5,-103.79"/>
</g>
<!-- MessageService -->
<g id="node4" class="node">
<title>MessageService</title>
<ellipse fill="#fdb462" stroke="black" cx="98" cy="-66.8" rx="73.57" ry="18"/>
<text text-anchor="middle" x="98" y="-62.6" font-family="Times,serif" font-size="14.00">MessageService</text>
</g>
<!-- MessageService&#45;&gt;OverlaysDemoComponent -->
<g id="edge3" class="edge">
<title>MessageService&#45;&gt;OverlaysDemoComponent</title>
<path fill="none" stroke="black" d="M98,-84.91C98,-104.14 98,-131.8 98,-131.8 98,-131.8 188.88,-131.8 188.88,-131.8"/>
<polygon fill="black" stroke="black" points="188.88,-135.3 198.88,-131.8 188.88,-128.3 188.88,-135.3"/>
</g>
<!-- OverlaysDemoRoutingModule -->
<g id="node5" class="node">
<title>OverlaysDemoRoutingModule</title>
<polygon fill="#8dd3c7" stroke="black" points="587.92,-149.8 584.92,-153.8 563.92,-153.8 560.92,-149.8 398.08,-149.8 398.08,-113.8 587.92,-113.8 587.92,-149.8"/>
<text text-anchor="middle" x="493" y="-127.6" font-family="Times,serif" font-size="14.00">OverlaysDemoRoutingModule</text>
</g>
<!-- OverlaysDemoRoutingModule&#45;&gt;OverlaysDemoModule -->
<g id="edge4" class="edge">
<title>OverlaysDemoRoutingModule&#45;&gt;OverlaysDemoModule</title>
<path fill="none" stroke="black" d="M428.72,-149.91C428.72,-149.91 428.72,-168.79 428.72,-168.79"/>
<polygon fill="black" stroke="black" points="425.22,-168.79 428.72,-178.79 432.22,-168.79 425.22,-168.79"/>
</g>
</g>
</svg>
