<?xml version="1.0" encoding="UTF-8" standalone="no"?>
<!DOCTYPE svg PUBLIC "-//W3C//DTD SVG 1.1//EN"
 "http://www.w3.org/Graphics/SVG/1.1/DTD/svg11.dtd">
<!-- Generated by graphviz version 5.0.0 (20220707.1540)
 -->
<!-- Title: dependencies Pages: 1 -->
<svg width="324pt" height="174pt"
 viewBox="0.00 0.00 324.00 173.80" xmlns="http://www.w3.org/2000/svg" xmlns:xlink="http://www.w3.org/1999/xlink">
<g id="graph0" class="graph" transform="scale(1 1) rotate(0) translate(4 169.8)">
<title>dependencies</title>
<polygon fill="white" stroke="transparent" points="-4,4 -4,-169.8 320,-169.8 320,4 -4,4"/>
<text text-anchor="middle" x="158" y="-8.2" font-family="sans-serif" font-size="14.00">dependencies</text>
<g id="clust1" class="cluster">
<title>cluster_ErrorModule</title>
<polygon fill="none" stroke="black" stroke-dasharray="1,5" points="8,-32.8 8,-157.8 308,-157.8 308,-32.8 8,-32.8"/>
</g>
<g id="clust4" class="cluster">
<title>cluster_ErrorModule_imports</title>
<polygon fill="none" stroke="black" points="150,-40.8 150,-92.8 300,-92.8 300,-40.8 150,-40.8"/>
</g>
<g id="clust2" class="cluster">
<title>cluster_ErrorModule_declarations</title>
<polygon fill="none" stroke="black" points="16,-40.8 16,-92.8 142,-92.8 142,-40.8 16,-40.8"/>
</g>
<!-- ErrorComponent -->
<g id="node1" class="node">
<title>ErrorComponent</title>
<polygon fill="#ffffb3" stroke="black" points="134.37,-84.8 23.63,-84.8 23.63,-48.8 134.37,-48.8 134.37,-84.8"/>
<text text-anchor="middle" x="79" y="-62.6" font-family="Times,serif" font-size="14.00">ErrorComponent</text>
</g>
<!-- ErrorModule -->
<g id="node2" class="node">
<title>ErrorModule</title>
<polygon fill="#8dd3c7" stroke="black" points="196.59,-149.8 193.59,-153.8 172.59,-153.8 169.59,-149.8 107.41,-149.8 107.41,-113.8 196.59,-113.8 196.59,-149.8"/>
<text text-anchor="middle" x="152" y="-127.6" font-family="Times,serif" font-size="14.00">ErrorModule</text>
</g>
<!-- ErrorComponent&#45;&gt;ErrorModule -->
<g id="edge1" class="edge">
<title>ErrorComponent&#45;&gt;ErrorModule</title>
<path fill="none" stroke="black" d="M120.94,-84.91C120.94,-84.91 120.94,-103.79 120.94,-103.79"/>
<polygon fill="black" stroke="black" points="117.44,-103.79 120.94,-113.79 124.44,-103.79 117.44,-103.79"/>
</g>
<!-- ErrorRoutingModule -->
<g id="node3" class="node">
<title>ErrorRoutingModule</title>
<polygon fill="#8dd3c7" stroke="black" points="292.21,-84.8 289.21,-88.8 268.21,-88.8 265.21,-84.8 157.79,-84.8 157.79,-48.8 292.21,-48.8 292.21,-84.8"/>
<text text-anchor="middle" x="225" y="-62.6" font-family="Times,serif" font-size="14.00">ErrorRoutingModule</text>
</g>
<!-- ErrorRoutingModule&#45;&gt;ErrorModule -->
<g id="edge2" class="edge">
<title>ErrorRoutingModule&#45;&gt;ErrorModule</title>
<path fill="none" stroke="black" d="M177.22,-84.91C177.22,-84.91 177.22,-103.79 177.22,-103.79"/>
<polygon fill="black" stroke="black" points="173.72,-103.79 177.22,-113.79 180.72,-103.79 173.72,-103.79"/>
</g>
</g>
</svg>
