<?xml version="1.0" encoding="UTF-8" standalone="no"?>
<!DOCTYPE svg PUBLIC "-//W3C//DTD SVG 1.1//EN"
 "http://www.w3.org/Graphics/SVG/1.1/DTD/svg11.dtd">
<!-- Generated by graphviz version 5.0.0 (20220707.1540)
 -->
<!-- Title: dependencies Pages: 1 -->
<svg width="1178pt" height="247pt"
 viewBox="0.00 0.00 1178.00 246.80" xmlns="http://www.w3.org/2000/svg" xmlns:xlink="http://www.w3.org/1999/xlink">
<g id="graph0" class="graph" transform="scale(1 1) rotate(0) translate(4 242.8)">
<title>dependencies</title>
<polygon fill="white" stroke="transparent" points="-4,4 -4,-242.8 1174,-242.8 1174,4 -4,4"/>
<text text-anchor="middle" x="585" y="-8.2" font-family="sans-serif" font-size="14.00">dependencies</text>
<g id="clust1" class="cluster">
<title>cluster_AppLayoutModule</title>
<polygon fill="none" stroke="black" stroke-dasharray="1,5" points="8,-32.8 8,-230.8 1162,-230.8 1162,-32.8 8,-32.8"/>
</g>
<g id="clust2" class="cluster">
<title>cluster_AppLayoutModule_declarations</title>
<polygon fill="none" stroke="black" points="162,-40.8 162,-92.8 1154,-92.8 1154,-40.8 162,-40.8"/>
</g>
<g id="clust10" class="cluster">
<title>cluster_AppLayoutModule_exports</title>
<polygon fill="none" stroke="black" points="502,-170.8 502,-222.8 666,-222.8 666,-170.8 502,-170.8"/>
</g>
<g id="clust9" class="cluster">
<title>cluster_AppLayoutModule_imports</title>
<polygon fill="none" stroke="black" points="16,-40.8 16,-92.8 154,-92.8 154,-40.8 16,-40.8"/>
</g>
<!-- AppFooterComponent -->
<g id="node1" class="node">
<title>AppFooterComponent</title>
<polygon fill="#ffffb3" stroke="black" points="1145.99,-84.8 1004.01,-84.8 1004.01,-48.8 1145.99,-48.8 1145.99,-84.8"/>
<text text-anchor="middle" x="1075" y="-62.6" font-family="Times,serif" font-size="14.00">AppFooterComponent</text>
</g>
<!-- AppLayoutModule -->
<g id="node7" class="node">
<title>AppLayoutModule</title>
<polygon fill="#8dd3c7" stroke="black" points="645.82,-149.8 642.82,-153.8 621.82,-153.8 618.82,-149.8 522.18,-149.8 522.18,-113.8 645.82,-113.8 645.82,-149.8"/>
<text text-anchor="middle" x="584" y="-127.6" font-family="Times,serif" font-size="14.00">AppLayoutModule</text>
</g>
<!-- AppFooterComponent&#45;&gt;AppLayoutModule -->
<g id="edge1" class="edge">
<title>AppFooterComponent&#45;&gt;AppLayoutModule</title>
<path fill="none" stroke="black" d="M1075,-85.09C1075,-107.01 1075,-140.8 1075,-140.8 1075,-140.8 655.69,-140.8 655.69,-140.8"/>
<polygon fill="black" stroke="black" points="655.69,-137.3 645.69,-140.8 655.69,-144.3 655.69,-137.3"/>
</g>
<!-- AppLayoutComponent -->
<g id="node2" class="node">
<title>AppLayoutComponent</title>
<polygon fill="#ffffb3" stroke="black" points="985.6,-84.8 840.4,-84.8 840.4,-48.8 985.6,-48.8 985.6,-84.8"/>
<text text-anchor="middle" x="913" y="-62.6" font-family="Times,serif" font-size="14.00">AppLayoutComponent</text>
</g>
<!-- AppLayoutComponent&#45;&gt;AppLayoutModule -->
<g id="edge2" class="edge">
<title>AppLayoutComponent&#45;&gt;AppLayoutModule</title>
<path fill="none" stroke="black" d="M913,-84.91C913,-104.14 913,-131.8 913,-131.8 913,-131.8 655.88,-131.8 655.88,-131.8"/>
<polygon fill="black" stroke="black" points="655.88,-128.3 645.88,-131.8 655.88,-135.3 655.88,-128.3"/>
</g>
<!-- AppMenuComponent -->
<g id="node3" class="node">
<title>AppMenuComponent</title>
<polygon fill="#ffffb3" stroke="black" points="822.1,-84.8 683.9,-84.8 683.9,-48.8 822.1,-48.8 822.1,-84.8"/>
<text text-anchor="middle" x="753" y="-62.6" font-family="Times,serif" font-size="14.00">AppMenuComponent</text>
</g>
<!-- AppMenuComponent&#45;&gt;AppLayoutModule -->
<g id="edge3" class="edge">
<title>AppMenuComponent&#45;&gt;AppLayoutModule</title>
<path fill="none" stroke="black" d="M753,-84.83C753,-101.2 753,-122.8 753,-122.8 753,-122.8 655.97,-122.8 655.97,-122.8"/>
<polygon fill="black" stroke="black" points="655.97,-119.3 645.97,-122.8 655.97,-126.3 655.97,-119.3"/>
</g>
<!-- AppMenuitemComponent -->
<g id="node4" class="node">
<title>AppMenuitemComponent</title>
<polygon fill="#ffffb3" stroke="black" points="665.49,-84.8 502.51,-84.8 502.51,-48.8 665.49,-48.8 665.49,-84.8"/>
<text text-anchor="middle" x="584" y="-62.6" font-family="Times,serif" font-size="14.00">AppMenuitemComponent</text>
</g>
<!-- AppMenuitemComponent&#45;&gt;AppLayoutModule -->
<g id="edge4" class="edge">
<title>AppMenuitemComponent&#45;&gt;AppLayoutModule</title>
<path fill="none" stroke="black" d="M584,-84.91C584,-84.91 584,-103.79 584,-103.79"/>
<polygon fill="black" stroke="black" points="580.5,-103.79 584,-113.79 587.5,-103.79 580.5,-103.79"/>
</g>
<!-- AppSidebarComponent -->
<g id="node5" class="node">
<title>AppSidebarComponent</title>
<polygon fill="#ffffb3" stroke="black" points="484.21,-84.8 335.79,-84.8 335.79,-48.8 484.21,-48.8 484.21,-84.8"/>
<text text-anchor="middle" x="410" y="-62.6" font-family="Times,serif" font-size="14.00">AppSidebarComponent</text>
</g>
<!-- AppSidebarComponent&#45;&gt;AppLayoutModule -->
<g id="edge5" class="edge">
<title>AppSidebarComponent&#45;&gt;AppLayoutModule</title>
<path fill="none" stroke="black" d="M410,-84.83C410,-101.2 410,-122.8 410,-122.8 410,-122.8 512.16,-122.8 512.16,-122.8"/>
<polygon fill="black" stroke="black" points="512.16,-126.3 522.16,-122.8 512.16,-119.3 512.16,-126.3"/>
</g>
<!-- AppTopBarComponent -->
<g id="node6" class="node">
<title>AppTopBarComponent</title>
<polygon fill="#ffffb3" stroke="black" points="318.21,-84.8 169.79,-84.8 169.79,-48.8 318.21,-48.8 318.21,-84.8"/>
<text text-anchor="middle" x="244" y="-62.6" font-family="Times,serif" font-size="14.00">AppTopBarComponent</text>
</g>
<!-- AppTopBarComponent&#45;&gt;AppLayoutModule -->
<g id="edge6" class="edge">
<title>AppTopBarComponent&#45;&gt;AppLayoutModule</title>
<path fill="none" stroke="black" d="M244,-84.91C244,-104.14 244,-131.8 244,-131.8 244,-131.8 512.03,-131.8 512.03,-131.8"/>
<polygon fill="black" stroke="black" points="512.03,-135.3 522.03,-131.8 512.03,-128.3 512.03,-135.3"/>
</g>
<!-- AppLayoutComponent  -->
<g id="node9" class="node">
<title>AppLayoutComponent </title>
<polygon fill="#fb8072" stroke="black" points="658.1,-214.8 509.9,-214.8 509.9,-178.8 658.1,-178.8 658.1,-214.8"/>
<text text-anchor="middle" x="584" y="-192.6" font-family="Times,serif" font-size="14.00">AppLayoutComponent </text>
</g>
<!-- AppLayoutModule&#45;&gt;AppLayoutComponent  -->
<g id="edge8" class="edge">
<title>AppLayoutModule&#45;&gt;AppLayoutComponent </title>
<path fill="none" stroke="black" stroke-dasharray="5,2" d="M584,-149.91C584,-149.91 584,-168.79 584,-168.79"/>
<polygon fill="black" stroke="black" points="580.5,-168.79 584,-178.79 587.5,-168.79 580.5,-168.79"/>
</g>
<!-- AppConfigModule -->
<g id="node8" class="node">
<title>AppConfigModule</title>
<polygon fill="#8dd3c7" stroke="black" points="146.05,-84.8 143.05,-88.8 122.05,-88.8 119.05,-84.8 23.95,-84.8 23.95,-48.8 146.05,-48.8 146.05,-84.8"/>
<text text-anchor="middle" x="85" y="-62.6" font-family="Times,serif" font-size="14.00">AppConfigModule</text>
</g>
<!-- AppConfigModule&#45;&gt;AppLayoutModule -->
<g id="edge7" class="edge">
<title>AppConfigModule&#45;&gt;AppLayoutModule</title>
<path fill="none" stroke="black" d="M85,-85.09C85,-107.01 85,-140.8 85,-140.8 85,-140.8 512.31,-140.8 512.31,-140.8"/>
<polygon fill="black" stroke="black" points="512.31,-144.3 522.31,-140.8 512.31,-137.3 512.31,-144.3"/>
</g>
</g>
</svg>
