<?xml version="1.0" encoding="UTF-8" standalone="no"?>
<!DOCTYPE svg PUBLIC "-//W3C//DTD SVG 1.1//EN"
 "http://www.w3.org/Graphics/SVG/1.1/DTD/svg11.dtd">
<!-- Generated by graphviz version 5.0.0 (20220707.1540)
 -->
<!-- Title: dependencies Pages: 1 -->
<svg width="450pt" height="174pt"
 viewBox="0.00 0.00 450.00 173.80" xmlns="http://www.w3.org/2000/svg" xmlns:xlink="http://www.w3.org/1999/xlink">
<g id="graph0" class="graph" transform="scale(1 1) rotate(0) translate(4 169.8)">
<title>dependencies</title>
<polygon fill="white" stroke="transparent" points="-4,4 -4,-169.8 446,-169.8 446,4 -4,4"/>
<text text-anchor="middle" x="221" y="-8.2" font-family="sans-serif" font-size="14.00">dependencies</text>
<g id="clust1" class="cluster">
<title>cluster_FloatlabelDemoModule</title>
<polygon fill="none" stroke="black" stroke-dasharray="1,5" points="8,-32.8 8,-157.8 434,-157.8 434,-32.8 8,-32.8"/>
</g>
<g id="clust2" class="cluster">
<title>cluster_FloatlabelDemoModule_declarations</title>
<polygon fill="none" stroke="black" points="234,-40.8 234,-92.8 426,-92.8 426,-40.8 234,-40.8"/>
</g>
<g id="clust4" class="cluster">
<title>cluster_FloatlabelDemoModule_imports</title>
<polygon fill="none" stroke="black" points="16,-40.8 16,-92.8 226,-92.8 226,-40.8 16,-40.8"/>
</g>
<!-- FloatLabelDemoComponent -->
<g id="node1" class="node">
<title>FloatLabelDemoComponent</title>
<polygon fill="#ffffb3" stroke="black" points="418.19,-84.8 241.81,-84.8 241.81,-48.8 418.19,-48.8 418.19,-84.8"/>
<text text-anchor="middle" x="330" y="-62.6" font-family="Times,serif" font-size="14.00">FloatLabelDemoComponent</text>
</g>
<!-- FloatlabelDemoModule -->
<g id="node2" class="node">
<title>FloatlabelDemoModule</title>
<polygon fill="#8dd3c7" stroke="black" points="299.75,-149.8 296.75,-153.8 275.75,-153.8 272.75,-149.8 150.25,-149.8 150.25,-113.8 299.75,-113.8 299.75,-149.8"/>
<text text-anchor="middle" x="225" y="-127.6" font-family="Times,serif" font-size="14.00">FloatlabelDemoModule</text>
</g>
<!-- FloatLabelDemoComponent&#45;&gt;FloatlabelDemoModule -->
<g id="edge1" class="edge">
<title>FloatLabelDemoComponent&#45;&gt;FloatlabelDemoModule</title>
<path fill="none" stroke="black" d="M270.89,-84.91C270.89,-84.91 270.89,-103.79 270.89,-103.79"/>
<polygon fill="black" stroke="black" points="267.39,-103.79 270.89,-113.79 274.39,-103.79 267.39,-103.79"/>
</g>
<!-- FloatlabelDemoRoutingModule -->
<g id="node3" class="node">
<title>FloatlabelDemoRoutingModule</title>
<polygon fill="#8dd3c7" stroke="black" points="218.37,-84.8 215.37,-88.8 194.37,-88.8 191.37,-84.8 23.63,-84.8 23.63,-48.8 218.37,-48.8 218.37,-84.8"/>
<text text-anchor="middle" x="121" y="-62.6" font-family="Times,serif" font-size="14.00">FloatlabelDemoRoutingModule</text>
</g>
<!-- FloatlabelDemoRoutingModule&#45;&gt;FloatlabelDemoModule -->
<g id="edge2" class="edge">
<title>FloatlabelDemoRoutingModule&#45;&gt;FloatlabelDemoModule</title>
<path fill="none" stroke="black" d="M184.28,-84.91C184.28,-84.91 184.28,-103.79 184.28,-103.79"/>
<polygon fill="black" stroke="black" points="180.78,-103.79 184.28,-113.79 187.78,-103.79 180.78,-103.79"/>
</g>
</g>
</svg>
