<?xml version="1.0" encoding="UTF-8" standalone="no"?>
<!DOCTYPE svg PUBLIC "-//W3C//DTD SVG 1.1//EN"
 "http://www.w3.org/Graphics/SVG/1.1/DTD/svg11.dtd">
<!-- Generated by graphviz version 5.0.0 (20220707.1540)
 -->
<!-- Title: dependencies Pages: 1 -->
<svg width="360pt" height="174pt"
 viewBox="0.00 0.00 360.00 173.80" xmlns="http://www.w3.org/2000/svg" xmlns:xlink="http://www.w3.org/1999/xlink">
<g id="graph0" class="graph" transform="scale(1 1) rotate(0) translate(4 169.8)">
<title>dependencies</title>
<polygon fill="white" stroke="transparent" points="-4,4 -4,-169.8 356,-169.8 356,4 -4,4"/>
<text text-anchor="middle" x="176" y="-8.2" font-family="sans-serif" font-size="14.00">dependencies</text>
<g id="clust1" class="cluster">
<title>cluster_LandingModule</title>
<polygon fill="none" stroke="black" stroke-dasharray="1,5" points="8,-32.8 8,-157.8 344,-157.8 344,-32.8 8,-32.8"/>
</g>
<g id="clust4" class="cluster">
<title>cluster_LandingModule_imports</title>
<polygon fill="none" stroke="black" points="168,-40.8 168,-92.8 336,-92.8 336,-40.8 168,-40.8"/>
</g>
<g id="clust2" class="cluster">
<title>cluster_LandingModule_declarations</title>
<polygon fill="none" stroke="black" points="16,-40.8 16,-92.8 160,-92.8 160,-40.8 16,-40.8"/>
</g>
<!-- LandingComponent -->
<g id="node1" class="node">
<title>LandingComponent</title>
<polygon fill="#ffffb3" stroke="black" points="151.99,-84.8 24.01,-84.8 24.01,-48.8 151.99,-48.8 151.99,-84.8"/>
<text text-anchor="middle" x="88" y="-62.6" font-family="Times,serif" font-size="14.00">LandingComponent</text>
</g>
<!-- LandingModule -->
<g id="node2" class="node">
<title>LandingModule</title>
<polygon fill="#8dd3c7" stroke="black" points="223.21,-149.8 220.21,-153.8 199.21,-153.8 196.21,-149.8 116.79,-149.8 116.79,-113.8 223.21,-113.8 223.21,-149.8"/>
<text text-anchor="middle" x="170" y="-127.6" font-family="Times,serif" font-size="14.00">LandingModule</text>
</g>
<!-- LandingComponent&#45;&gt;LandingModule -->
<g id="edge1" class="edge">
<title>LandingComponent&#45;&gt;LandingModule</title>
<path fill="none" stroke="black" d="M134.44,-84.91C134.44,-84.91 134.44,-103.79 134.44,-103.79"/>
<polygon fill="black" stroke="black" points="130.94,-103.79 134.44,-113.79 137.94,-103.79 130.94,-103.79"/>
</g>
<!-- LandingRoutingModule -->
<g id="node3" class="node">
<title>LandingRoutingModule</title>
<polygon fill="#8dd3c7" stroke="black" points="327.82,-84.8 324.82,-88.8 303.82,-88.8 300.82,-84.8 176.18,-84.8 176.18,-48.8 327.82,-48.8 327.82,-84.8"/>
<text text-anchor="middle" x="252" y="-62.6" font-family="Times,serif" font-size="14.00">LandingRoutingModule</text>
</g>
<!-- LandingRoutingModule&#45;&gt;LandingModule -->
<g id="edge2" class="edge">
<title>LandingRoutingModule&#45;&gt;LandingModule</title>
<path fill="none" stroke="black" d="M199.72,-84.91C199.72,-84.91 199.72,-103.79 199.72,-103.79"/>
<polygon fill="black" stroke="black" points="196.22,-103.79 199.72,-113.79 203.22,-103.79 196.22,-103.79"/>
</g>
</g>
</svg>
