<?xml version="1.0" encoding="UTF-8" standalone="no"?>
<!DOCTYPE svg PUBLIC "-//W3C//DTD SVG 1.1//EN"
 "http://www.w3.org/Graphics/SVG/1.1/DTD/svg11.dtd">
<!-- Generated by graphviz version 5.0.0 (20220707.1540)
 -->
<!-- Title: dependencies Pages: 1 -->
<svg width="474pt" height="174pt"
 viewBox="0.00 0.00 474.00 173.80" xmlns="http://www.w3.org/2000/svg" xmlns:xlink="http://www.w3.org/1999/xlink">
<g id="graph0" class="graph" transform="scale(1 1) rotate(0) translate(4 169.8)">
<title>dependencies</title>
<polygon fill="white" stroke="transparent" points="-4,4 -4,-169.8 470,-169.8 470,4 -4,4"/>
<text text-anchor="middle" x="233" y="-8.2" font-family="sans-serif" font-size="14.00">dependencies</text>
<g id="clust1" class="cluster">
<title>cluster_FormLayoutDemoModule</title>
<polygon fill="none" stroke="black" stroke-dasharray="1,5" points="8,-32.8 8,-157.8 458,-157.8 458,-32.8 8,-32.8"/>
</g>
<g id="clust4" class="cluster">
<title>cluster_FormLayoutDemoModule_imports</title>
<polygon fill="none" stroke="black" points="226,-40.8 226,-92.8 450,-92.8 450,-40.8 226,-40.8"/>
</g>
<g id="clust2" class="cluster">
<title>cluster_FormLayoutDemoModule_declarations</title>
<polygon fill="none" stroke="black" points="16,-40.8 16,-92.8 218,-92.8 218,-40.8 16,-40.8"/>
</g>
<!-- FormLayoutDemoComponent -->
<g id="node1" class="node">
<title>FormLayoutDemoComponent</title>
<polygon fill="#ffffb3" stroke="black" points="209.54,-84.8 24.46,-84.8 24.46,-48.8 209.54,-48.8 209.54,-84.8"/>
<text text-anchor="middle" x="117" y="-62.6" font-family="Times,serif" font-size="14.00">FormLayoutDemoComponent</text>
</g>
<!-- FormLayoutDemoModule -->
<g id="node2" class="node">
<title>FormLayoutDemoModule</title>
<polygon fill="#8dd3c7" stroke="black" points="308.76,-149.8 305.76,-153.8 284.76,-153.8 281.76,-149.8 145.24,-149.8 145.24,-113.8 308.76,-113.8 308.76,-149.8"/>
<text text-anchor="middle" x="227" y="-127.6" font-family="Times,serif" font-size="14.00">FormLayoutDemoModule</text>
</g>
<!-- FormLayoutDemoComponent&#45;&gt;FormLayoutDemoModule -->
<g id="edge1" class="edge">
<title>FormLayoutDemoComponent&#45;&gt;FormLayoutDemoModule</title>
<path fill="none" stroke="black" d="M177.44,-84.91C177.44,-84.91 177.44,-103.79 177.44,-103.79"/>
<polygon fill="black" stroke="black" points="173.94,-103.79 177.44,-113.79 180.94,-103.79 173.94,-103.79"/>
</g>
<!-- FormLayoutDemoRoutingModule -->
<g id="node3" class="node">
<title>FormLayoutDemoRoutingModule</title>
<polygon fill="#8dd3c7" stroke="black" points="442.38,-84.8 439.38,-88.8 418.38,-88.8 415.38,-84.8 233.62,-84.8 233.62,-48.8 442.38,-48.8 442.38,-84.8"/>
<text text-anchor="middle" x="338" y="-62.6" font-family="Times,serif" font-size="14.00">FormLayoutDemoRoutingModule</text>
</g>
<!-- FormLayoutDemoRoutingModule&#45;&gt;FormLayoutDemoModule -->
<g id="edge2" class="edge">
<title>FormLayoutDemoRoutingModule&#45;&gt;FormLayoutDemoModule</title>
<path fill="none" stroke="black" d="M271.22,-84.91C271.22,-84.91 271.22,-103.79 271.22,-103.79"/>
<polygon fill="black" stroke="black" points="267.72,-103.79 271.22,-113.79 274.72,-103.79 267.72,-103.79"/>
</g>
</g>
</svg>
