<?xml version="1.0" encoding="UTF-8" standalone="no"?>
<!DOCTYPE svg PUBLIC "-//W3C//DTD SVG 1.1//EN"
 "http://www.w3.org/Graphics/SVG/1.1/DTD/svg11.dtd">
<!-- Generated by graphviz version 5.0.0 (20220707.1540)
 -->
<!-- Title: dependencies Pages: 1 -->
<svg width="386pt" height="174pt"
 viewBox="0.00 0.00 386.00 173.80" xmlns="http://www.w3.org/2000/svg" xmlns:xlink="http://www.w3.org/1999/xlink">
<g id="graph0" class="graph" transform="scale(1 1) rotate(0) translate(4 169.8)">
<title>dependencies</title>
<polygon fill="white" stroke="transparent" points="-4,4 -4,-169.8 382,-169.8 382,4 -4,4"/>
<text text-anchor="middle" x="189" y="-8.2" font-family="sans-serif" font-size="14.00">dependencies</text>
<g id="clust1" class="cluster">
<title>cluster_TreeDemoModule</title>
<polygon fill="none" stroke="black" stroke-dasharray="1,5" points="8,-32.8 8,-157.8 370,-157.8 370,-32.8 8,-32.8"/>
</g>
<g id="clust2" class="cluster">
<title>cluster_TreeDemoModule_declarations</title>
<polygon fill="none" stroke="black" points="204,-40.8 204,-92.8 362,-92.8 362,-40.8 204,-40.8"/>
</g>
<g id="clust4" class="cluster">
<title>cluster_TreeDemoModule_imports</title>
<polygon fill="none" stroke="black" points="16,-40.8 16,-92.8 196,-92.8 196,-40.8 16,-40.8"/>
</g>
<!-- TreeDemoComponent -->
<g id="node1" class="node">
<title>TreeDemoComponent</title>
<polygon fill="#ffffb3" stroke="black" points="353.69,-84.8 212.31,-84.8 212.31,-48.8 353.69,-48.8 353.69,-84.8"/>
<text text-anchor="middle" x="283" y="-62.6" font-family="Times,serif" font-size="14.00">TreeDemoComponent</text>
</g>
<!-- TreeDemoModule -->
<g id="node2" class="node">
<title>TreeDemoModule</title>
<polygon fill="#8dd3c7" stroke="black" points="253.91,-149.8 250.91,-153.8 229.91,-153.8 226.91,-149.8 134.09,-149.8 134.09,-113.8 253.91,-113.8 253.91,-149.8"/>
<text text-anchor="middle" x="194" y="-127.6" font-family="Times,serif" font-size="14.00">TreeDemoModule</text>
</g>
<!-- TreeDemoComponent&#45;&gt;TreeDemoModule -->
<g id="edge1" class="edge">
<title>TreeDemoComponent&#45;&gt;TreeDemoModule</title>
<path fill="none" stroke="black" d="M233.06,-84.91C233.06,-84.91 233.06,-103.79 233.06,-103.79"/>
<polygon fill="black" stroke="black" points="229.56,-103.79 233.06,-113.79 236.56,-103.79 229.56,-103.79"/>
</g>
<!-- TreeDemoRoutingModule -->
<g id="node3" class="node">
<title>TreeDemoRoutingModule</title>
<polygon fill="#8dd3c7" stroke="black" points="188.03,-84.8 185.03,-88.8 164.03,-88.8 161.03,-84.8 23.97,-84.8 23.97,-48.8 188.03,-48.8 188.03,-84.8"/>
<text text-anchor="middle" x="106" y="-62.6" font-family="Times,serif" font-size="14.00">TreeDemoRoutingModule</text>
</g>
<!-- TreeDemoRoutingModule&#45;&gt;TreeDemoModule -->
<g id="edge2" class="edge">
<title>TreeDemoRoutingModule&#45;&gt;TreeDemoModule</title>
<path fill="none" stroke="black" d="M161.28,-84.91C161.28,-84.91 161.28,-103.79 161.28,-103.79"/>
<polygon fill="black" stroke="black" points="157.78,-103.79 161.28,-113.79 164.78,-103.79 157.78,-103.79"/>
</g>
</g>
</svg>
