<?xml version="1.0" encoding="UTF-8" standalone="no"?>
<!DOCTYPE svg PUBLIC "-//W3C//DTD SVG 1.1//EN"
 "http://www.w3.org/Graphics/SVG/1.1/DTD/svg11.dtd">
<!-- Generated by graphviz version 5.0.0 (20220707.1540)
 -->
<!-- Title: dependencies Pages: 1 -->
<svg width="344pt" height="174pt"
 viewBox="0.00 0.00 344.00 173.80" xmlns="http://www.w3.org/2000/svg" xmlns:xlink="http://www.w3.org/1999/xlink">
<g id="graph0" class="graph" transform="scale(1 1) rotate(0) translate(4 169.8)">
<title>dependencies</title>
<polygon fill="white" stroke="transparent" points="-4,4 -4,-169.8 340,-169.8 340,4 -4,4"/>
<text text-anchor="middle" x="168" y="-8.2" font-family="sans-serif" font-size="14.00">dependencies</text>
<g id="clust1" class="cluster">
<title>cluster_AccessModule</title>
<polygon fill="none" stroke="black" stroke-dasharray="1,5" points="8,-32.8 8,-157.8 328,-157.8 328,-32.8 8,-32.8"/>
</g>
<g id="clust2" class="cluster">
<title>cluster_AccessModule_declarations</title>
<polygon fill="none" stroke="black" points="184,-40.8 184,-92.8 320,-92.8 320,-40.8 184,-40.8"/>
</g>
<g id="clust4" class="cluster">
<title>cluster_AccessModule_imports</title>
<polygon fill="none" stroke="black" points="16,-40.8 16,-92.8 176,-92.8 176,-40.8 16,-40.8"/>
</g>
<!-- AccessComponent -->
<g id="node1" class="node">
<title>AccessComponent</title>
<polygon fill="#ffffb3" stroke="black" points="312.48,-84.8 191.52,-84.8 191.52,-48.8 312.48,-48.8 312.48,-84.8"/>
<text text-anchor="middle" x="252" y="-62.6" font-family="Times,serif" font-size="14.00">AccessComponent</text>
</g>
<!-- AccessModule -->
<g id="node2" class="node">
<title>AccessModule</title>
<polygon fill="#8dd3c7" stroke="black" points="223.7,-149.8 220.7,-153.8 199.7,-153.8 196.7,-149.8 124.3,-149.8 124.3,-113.8 223.7,-113.8 223.7,-149.8"/>
<text text-anchor="middle" x="174" y="-127.6" font-family="Times,serif" font-size="14.00">AccessModule</text>
</g>
<!-- AccessComponent&#45;&gt;AccessModule -->
<g id="edge1" class="edge">
<title>AccessComponent&#45;&gt;AccessModule</title>
<path fill="none" stroke="black" d="M207.56,-84.91C207.56,-84.91 207.56,-103.79 207.56,-103.79"/>
<polygon fill="black" stroke="black" points="204.06,-103.79 207.56,-113.79 211.06,-103.79 204.06,-103.79"/>
</g>
<!-- AccessRoutingModule -->
<g id="node3" class="node">
<title>AccessRoutingModule</title>
<polygon fill="#8dd3c7" stroke="black" points="168.32,-84.8 165.32,-88.8 144.32,-88.8 141.32,-84.8 23.68,-84.8 23.68,-48.8 168.32,-48.8 168.32,-84.8"/>
<text text-anchor="middle" x="96" y="-62.6" font-family="Times,serif" font-size="14.00">AccessRoutingModule</text>
</g>
<!-- AccessRoutingModule&#45;&gt;AccessModule -->
<g id="edge2" class="edge">
<title>AccessRoutingModule&#45;&gt;AccessModule</title>
<path fill="none" stroke="black" d="M146.28,-84.91C146.28,-84.91 146.28,-103.79 146.28,-103.79"/>
<polygon fill="black" stroke="black" points="142.78,-103.79 146.28,-113.79 149.78,-103.79 142.78,-103.79"/>
</g>
</g>
</svg>
