<?xml version="1.0" encoding="UTF-8" standalone="no"?>
<!DOCTYPE svg PUBLIC "-//W3C//DTD SVG 1.1//EN"
 "http://www.w3.org/Graphics/SVG/1.1/DTD/svg11.dtd">
<!-- Generated by graphviz version 5.0.0 (20220707.1540)
 -->
<!-- Title: dependencies Pages: 1 -->
<svg width="408pt" height="174pt"
 viewBox="0.00 0.00 408.00 173.80" xmlns="http://www.w3.org/2000/svg" xmlns:xlink="http://www.w3.org/1999/xlink">
<g id="graph0" class="graph" transform="scale(1 1) rotate(0) translate(4 169.8)">
<title>dependencies</title>
<polygon fill="white" stroke="transparent" points="-4,4 -4,-169.8 404,-169.8 404,4 -4,4"/>
<text text-anchor="middle" x="200" y="-8.2" font-family="sans-serif" font-size="14.00">dependencies</text>
<g id="clust1" class="cluster">
<title>cluster_PanelsDemoModule</title>
<polygon fill="none" stroke="black" stroke-dasharray="1,5" points="8,-32.8 8,-157.8 392,-157.8 392,-32.8 8,-32.8"/>
</g>
<g id="clust4" class="cluster">
<title>cluster_PanelsDemoModule_imports</title>
<polygon fill="none" stroke="black" points="192,-40.8 192,-92.8 384,-92.8 384,-40.8 192,-40.8"/>
</g>
<g id="clust2" class="cluster">
<title>cluster_PanelsDemoModule_declarations</title>
<polygon fill="none" stroke="black" points="16,-40.8 16,-92.8 184,-92.8 184,-40.8 16,-40.8"/>
</g>
<!-- PanelsDemoComponent -->
<g id="node1" class="node">
<title>PanelsDemoComponent</title>
<polygon fill="#ffffb3" stroke="black" points="176.1,-84.8 23.9,-84.8 23.9,-48.8 176.1,-48.8 176.1,-84.8"/>
<text text-anchor="middle" x="100" y="-62.6" font-family="Times,serif" font-size="14.00">PanelsDemoComponent</text>
</g>
<!-- PanelsDemoModule -->
<g id="node2" class="node">
<title>PanelsDemoModule</title>
<polygon fill="#8dd3c7" stroke="black" points="259.32,-149.8 256.32,-153.8 235.32,-153.8 232.32,-149.8 128.68,-149.8 128.68,-113.8 259.32,-113.8 259.32,-149.8"/>
<text text-anchor="middle" x="194" y="-127.6" font-family="Times,serif" font-size="14.00">PanelsDemoModule</text>
</g>
<!-- PanelsDemoComponent&#45;&gt;PanelsDemoModule -->
<g id="edge1" class="edge">
<title>PanelsDemoComponent&#45;&gt;PanelsDemoModule</title>
<path fill="none" stroke="black" d="M152.44,-84.91C152.44,-84.91 152.44,-103.79 152.44,-103.79"/>
<polygon fill="black" stroke="black" points="148.94,-103.79 152.44,-113.79 155.94,-103.79 148.94,-103.79"/>
</g>
<!-- PanelsDemoRoutingModule -->
<g id="node3" class="node">
<title>PanelsDemoRoutingModule</title>
<polygon fill="#8dd3c7" stroke="black" points="375.94,-84.8 372.94,-88.8 351.94,-88.8 348.94,-84.8 200.06,-84.8 200.06,-48.8 375.94,-48.8 375.94,-84.8"/>
<text text-anchor="middle" x="288" y="-62.6" font-family="Times,serif" font-size="14.00">PanelsDemoRoutingModule</text>
</g>
<!-- PanelsDemoRoutingModule&#45;&gt;PanelsDemoModule -->
<g id="edge2" class="edge">
<title>PanelsDemoRoutingModule&#45;&gt;PanelsDemoModule</title>
<path fill="none" stroke="black" d="M229.72,-84.91C229.72,-84.91 229.72,-103.79 229.72,-103.79"/>
<polygon fill="black" stroke="black" points="226.22,-103.79 229.72,-113.79 233.22,-103.79 226.22,-103.79"/>
</g>
</g>
</svg>
