<?xml version="1.0" encoding="UTF-8" standalone="no"?>
<!DOCTYPE svg PUBLIC "-//W3C//DTD SVG 1.1//EN"
 "http://www.w3.org/Graphics/SVG/1.1/DTD/svg11.dtd">
<!-- Generated by graphviz version 5.0.0 (20220707.1540)
 -->
<!-- Title: dependencies Pages: 1 -->
<svg width="378pt" height="174pt"
 viewBox="0.00 0.00 378.00 173.80" xmlns="http://www.w3.org/2000/svg" xmlns:xlink="http://www.w3.org/1999/xlink">
<g id="graph0" class="graph" transform="scale(1 1) rotate(0) translate(4 169.8)">
<title>dependencies</title>
<polygon fill="white" stroke="transparent" points="-4,4 -4,-169.8 374,-169.8 374,4 -4,4"/>
<text text-anchor="middle" x="185" y="-8.2" font-family="sans-serif" font-size="14.00">dependencies</text>
<g id="clust1" class="cluster">
<title>cluster_ListDemoModule</title>
<polygon fill="none" stroke="black" stroke-dasharray="1,5" points="8,-32.8 8,-157.8 362,-157.8 362,-32.8 8,-32.8"/>
</g>
<g id="clust2" class="cluster">
<title>cluster_ListDemoModule_declarations</title>
<polygon fill="none" stroke="black" points="200,-40.8 200,-92.8 354,-92.8 354,-40.8 200,-40.8"/>
</g>
<g id="clust4" class="cluster">
<title>cluster_ListDemoModule_imports</title>
<polygon fill="none" stroke="black" points="16,-40.8 16,-92.8 192,-92.8 192,-40.8 16,-40.8"/>
</g>
<!-- ListDemoComponent -->
<g id="node1" class="node">
<title>ListDemoComponent</title>
<polygon fill="#ffffb3" stroke="black" points="345.82,-84.8 208.18,-84.8 208.18,-48.8 345.82,-48.8 345.82,-84.8"/>
<text text-anchor="middle" x="277" y="-62.6" font-family="Times,serif" font-size="14.00">ListDemoComponent</text>
</g>
<!-- ListDemoModule -->
<g id="node2" class="node">
<title>ListDemoModule</title>
<polygon fill="#8dd3c7" stroke="black" points="247.55,-149.8 244.55,-153.8 223.55,-153.8 220.55,-149.8 132.45,-149.8 132.45,-113.8 247.55,-113.8 247.55,-149.8"/>
<text text-anchor="middle" x="190" y="-127.6" font-family="Times,serif" font-size="14.00">ListDemoModule</text>
</g>
<!-- ListDemoComponent&#45;&gt;ListDemoModule -->
<g id="edge1" class="edge">
<title>ListDemoComponent&#45;&gt;ListDemoModule</title>
<path fill="none" stroke="black" d="M228.06,-84.91C228.06,-84.91 228.06,-103.79 228.06,-103.79"/>
<polygon fill="black" stroke="black" points="224.56,-103.79 228.06,-113.79 231.56,-103.79 224.56,-103.79"/>
</g>
<!-- ListDemoRoutingModule -->
<g id="node3" class="node">
<title>ListDemoRoutingModule</title>
<polygon fill="#8dd3c7" stroke="black" points="184.16,-84.8 181.16,-88.8 160.16,-88.8 157.16,-84.8 23.84,-84.8 23.84,-48.8 184.16,-48.8 184.16,-84.8"/>
<text text-anchor="middle" x="104" y="-62.6" font-family="Times,serif" font-size="14.00">ListDemoRoutingModule</text>
</g>
<!-- ListDemoRoutingModule&#45;&gt;ListDemoModule -->
<g id="edge2" class="edge">
<title>ListDemoRoutingModule&#45;&gt;ListDemoModule</title>
<path fill="none" stroke="black" d="M158.28,-84.91C158.28,-84.91 158.28,-103.79 158.28,-103.79"/>
<polygon fill="black" stroke="black" points="154.78,-103.79 158.28,-113.79 161.78,-103.79 154.78,-103.79"/>
</g>
</g>
</svg>
