<?xml version="1.0" encoding="UTF-8" standalone="no"?>
<!DOCTYPE svg PUBLIC "-//W3C//DTD SVG 1.1//EN"
 "http://www.w3.org/Graphics/SVG/1.1/DTD/svg11.dtd">
<!-- Generated by graphviz version 5.0.0 (20220707.1540)
 -->
<!-- Title: dependencies Pages: 1 -->
<svg width="470pt" height="174pt"
 viewBox="0.00 0.00 470.00 173.80" xmlns="http://www.w3.org/2000/svg" xmlns:xlink="http://www.w3.org/1999/xlink">
<g id="graph0" class="graph" transform="scale(1 1) rotate(0) translate(4 169.8)">
<title>dependencies</title>
<polygon fill="white" stroke="transparent" points="-4,4 -4,-169.8 466,-169.8 466,4 -4,4"/>
<text text-anchor="middle" x="231" y="-8.2" font-family="sans-serif" font-size="14.00">dependencies</text>
<g id="clust1" class="cluster">
<title>cluster_InvalidStateDemoModule</title>
<polygon fill="none" stroke="black" stroke-dasharray="1,5" points="8,-32.8 8,-157.8 454,-157.8 454,-32.8 8,-32.8"/>
</g>
<g id="clust2" class="cluster">
<title>cluster_InvalidStateDemoModule_declarations</title>
<polygon fill="none" stroke="black" points="246,-40.8 246,-92.8 446,-92.8 446,-40.8 246,-40.8"/>
</g>
<g id="clust4" class="cluster">
<title>cluster_InvalidStateDemoModule_imports</title>
<polygon fill="none" stroke="black" points="16,-40.8 16,-92.8 238,-92.8 238,-40.8 16,-40.8"/>
</g>
<!-- InvalidStateDemoComponent -->
<g id="node1" class="node">
<title>InvalidStateDemoComponent</title>
<polygon fill="#ffffb3" stroke="black" points="437.69,-84.8 254.31,-84.8 254.31,-48.8 437.69,-48.8 437.69,-84.8"/>
<text text-anchor="middle" x="346" y="-62.6" font-family="Times,serif" font-size="14.00">InvalidStateDemoComponent</text>
</g>
<!-- InvalidStateDemoModule -->
<g id="node2" class="node">
<title>InvalidStateDemoModule</title>
<polygon fill="#8dd3c7" stroke="black" points="316.91,-149.8 313.91,-153.8 292.91,-153.8 289.91,-149.8 155.09,-149.8 155.09,-113.8 316.91,-113.8 316.91,-149.8"/>
<text text-anchor="middle" x="236" y="-127.6" font-family="Times,serif" font-size="14.00">InvalidStateDemoModule</text>
</g>
<!-- InvalidStateDemoComponent&#45;&gt;InvalidStateDemoModule -->
<g id="edge1" class="edge">
<title>InvalidStateDemoComponent&#45;&gt;InvalidStateDemoModule</title>
<path fill="none" stroke="black" d="M285.56,-84.91C285.56,-84.91 285.56,-103.79 285.56,-103.79"/>
<polygon fill="black" stroke="black" points="282.06,-103.79 285.56,-113.79 289.06,-103.79 282.06,-103.79"/>
</g>
<!-- InvalidStateDemoRoutingModule -->
<g id="node3" class="node">
<title>InvalidStateDemoRoutingModule</title>
<polygon fill="#8dd3c7" stroke="black" points="230.03,-84.8 227.03,-88.8 206.03,-88.8 203.03,-84.8 23.97,-84.8 23.97,-48.8 230.03,-48.8 230.03,-84.8"/>
<text text-anchor="middle" x="127" y="-62.6" font-family="Times,serif" font-size="14.00">InvalidStateDemoRoutingModule</text>
</g>
<!-- InvalidStateDemoRoutingModule&#45;&gt;InvalidStateDemoModule -->
<g id="edge2" class="edge">
<title>InvalidStateDemoRoutingModule&#45;&gt;InvalidStateDemoModule</title>
<path fill="none" stroke="black" d="M192.78,-84.91C192.78,-84.91 192.78,-103.79 192.78,-103.79"/>
<polygon fill="black" stroke="black" points="189.28,-103.79 192.78,-113.79 196.28,-103.79 189.28,-103.79"/>
</g>
</g>
</svg>
