<?xml version="1.0" encoding="UTF-8" standalone="no"?>
<!DOCTYPE svg PUBLIC "-//W3C//DTD SVG 1.1//EN"
 "http://www.w3.org/Graphics/SVG/1.1/DTD/svg11.dtd">
<!-- Generated by graphviz version 5.0.0 (20220707.1540)
 -->
<!-- Title: dependencies Pages: 1 -->
<svg width="394pt" height="174pt"
 viewBox="0.00 0.00 394.00 173.80" xmlns="http://www.w3.org/2000/svg" xmlns:xlink="http://www.w3.org/1999/xlink">
<g id="graph0" class="graph" transform="scale(1 1) rotate(0) translate(4 169.8)">
<title>dependencies</title>
<polygon fill="white" stroke="transparent" points="-4,4 -4,-169.8 390,-169.8 390,4 -4,4"/>
<text text-anchor="middle" x="193" y="-8.2" font-family="sans-serif" font-size="14.00">dependencies</text>
<g id="clust1" class="cluster">
<title>cluster_InputDemoModule</title>
<polygon fill="none" stroke="black" stroke-dasharray="1,5" points="8,-32.8 8,-157.8 378,-157.8 378,-32.8 8,-32.8"/>
</g>
<g id="clust2" class="cluster">
<title>cluster_InputDemoModule_declarations</title>
<polygon fill="none" stroke="black" points="208,-40.8 208,-92.8 370,-92.8 370,-40.8 208,-40.8"/>
</g>
<g id="clust4" class="cluster">
<title>cluster_InputDemoModule_imports</title>
<polygon fill="none" stroke="black" points="16,-40.8 16,-92.8 200,-92.8 200,-40.8 16,-40.8"/>
</g>
<!-- InputDemoComponent -->
<g id="node1" class="node">
<title>InputDemoComponent</title>
<polygon fill="#ffffb3" stroke="black" points="361.6,-84.8 216.4,-84.8 216.4,-48.8 361.6,-48.8 361.6,-84.8"/>
<text text-anchor="middle" x="289" y="-62.6" font-family="Times,serif" font-size="14.00">InputDemoComponent</text>
</g>
<!-- InputDemoModule -->
<g id="node2" class="node">
<title>InputDemoModule</title>
<polygon fill="#8dd3c7" stroke="black" points="259.82,-149.8 256.82,-153.8 235.82,-153.8 232.82,-149.8 136.18,-149.8 136.18,-113.8 259.82,-113.8 259.82,-149.8"/>
<text text-anchor="middle" x="198" y="-127.6" font-family="Times,serif" font-size="14.00">InputDemoModule</text>
</g>
<!-- InputDemoComponent&#45;&gt;InputDemoModule -->
<g id="edge1" class="edge">
<title>InputDemoComponent&#45;&gt;InputDemoModule</title>
<path fill="none" stroke="black" d="M238.06,-84.91C238.06,-84.91 238.06,-103.79 238.06,-103.79"/>
<polygon fill="black" stroke="black" points="234.56,-103.79 238.06,-113.79 241.56,-103.79 234.56,-103.79"/>
</g>
<!-- InputDemoRoutingModule -->
<g id="node3" class="node">
<title>InputDemoRoutingModule</title>
<polygon fill="#8dd3c7" stroke="black" points="192.44,-84.8 189.44,-88.8 168.44,-88.8 165.44,-84.8 23.56,-84.8 23.56,-48.8 192.44,-48.8 192.44,-84.8"/>
<text text-anchor="middle" x="108" y="-62.6" font-family="Times,serif" font-size="14.00">InputDemoRoutingModule</text>
</g>
<!-- InputDemoRoutingModule&#45;&gt;InputDemoModule -->
<g id="edge2" class="edge">
<title>InputDemoRoutingModule&#45;&gt;InputDemoModule</title>
<path fill="none" stroke="black" d="M164.28,-84.91C164.28,-84.91 164.28,-103.79 164.28,-103.79"/>
<polygon fill="black" stroke="black" points="160.78,-103.79 164.28,-113.79 167.78,-103.79 160.78,-103.79"/>
</g>
</g>
</svg>
