<?xml version="1.0" encoding="UTF-8" standalone="no"?>
<!DOCTYPE svg PUBLIC "-//W3C//DTD SVG 1.1//EN"
 "http://www.w3.org/Graphics/SVG/1.1/DTD/svg11.dtd">
<!-- Generated by graphviz version 5.0.0 (20220707.1540)
 -->
<!-- Title: dependencies Pages: 1 -->
<svg width="342pt" height="174pt"
 viewBox="0.00 0.00 342.00 173.80" xmlns="http://www.w3.org/2000/svg" xmlns:xlink="http://www.w3.org/1999/xlink">
<g id="graph0" class="graph" transform="scale(1 1) rotate(0) translate(4 169.8)">
<title>dependencies</title>
<polygon fill="white" stroke="transparent" points="-4,4 -4,-169.8 338,-169.8 338,4 -4,4"/>
<text text-anchor="middle" x="167" y="-8.2" font-family="sans-serif" font-size="14.00">dependencies</text>
<g id="clust1" class="cluster">
<title>cluster_UtilitiesModule</title>
<polygon fill="none" stroke="black" stroke-dasharray="1,5" points="8,-32.8 8,-157.8 326,-157.8 326,-32.8 8,-32.8"/>
</g>
<g id="clust2" class="cluster">
<title>cluster_UtilitiesModule_declarations</title>
<polygon fill="none" stroke="black" points="190,-40.8 190,-92.8 318,-92.8 318,-40.8 190,-40.8"/>
</g>
<g id="clust4" class="cluster">
<title>cluster_UtilitiesModule_imports</title>
<polygon fill="none" stroke="black" points="16,-40.8 16,-92.8 182,-92.8 182,-40.8 16,-40.8"/>
</g>
<!-- IconsComponent -->
<g id="node1" class="node">
<title>IconsComponent</title>
<polygon fill="#ffffb3" stroke="black" points="309.66,-84.8 198.34,-84.8 198.34,-48.8 309.66,-48.8 309.66,-84.8"/>
<text text-anchor="middle" x="254" y="-62.6" font-family="Times,serif" font-size="14.00">IconsComponent</text>
</g>
<!-- UtilitiesModule -->
<g id="node2" class="node">
<title>UtilitiesModule</title>
<polygon fill="#8dd3c7" stroke="black" points="228.16,-149.8 225.16,-153.8 204.16,-153.8 201.16,-149.8 123.84,-149.8 123.84,-113.8 228.16,-113.8 228.16,-149.8"/>
<text text-anchor="middle" x="176" y="-127.6" font-family="Times,serif" font-size="14.00">UtilitiesModule</text>
</g>
<!-- IconsComponent&#45;&gt;UtilitiesModule -->
<g id="edge1" class="edge">
<title>IconsComponent&#45;&gt;UtilitiesModule</title>
<path fill="none" stroke="black" d="M213.25,-84.91C213.25,-84.91 213.25,-103.79 213.25,-103.79"/>
<polygon fill="black" stroke="black" points="209.75,-103.79 213.25,-113.79 216.75,-103.79 209.75,-103.79"/>
</g>
<!-- UtilitiesRoutingModule -->
<g id="node3" class="node">
<title>UtilitiesRoutingModule</title>
<polygon fill="#8dd3c7" stroke="black" points="173.78,-84.8 170.78,-88.8 149.78,-88.8 146.78,-84.8 24.22,-84.8 24.22,-48.8 173.78,-48.8 173.78,-84.8"/>
<text text-anchor="middle" x="99" y="-62.6" font-family="Times,serif" font-size="14.00">UtilitiesRoutingModule</text>
</g>
<!-- UtilitiesRoutingModule&#45;&gt;UtilitiesModule -->
<g id="edge2" class="edge">
<title>UtilitiesRoutingModule&#45;&gt;UtilitiesModule</title>
<path fill="none" stroke="black" d="M148.78,-84.91C148.78,-84.91 148.78,-103.79 148.78,-103.79"/>
<polygon fill="black" stroke="black" points="145.28,-103.79 148.78,-113.79 152.28,-103.79 145.28,-103.79"/>
</g>
</g>
</svg>
