<?xml version="1.0" encoding="UTF-8" standalone="no"?>
<!DOCTYPE svg PUBLIC "-//W3C//DTD SVG 1.1//EN"
 "http://www.w3.org/Graphics/SVG/1.1/DTD/svg11.dtd">
<!-- Generated by graphviz version 5.0.0 (20220707.1540)
 -->
<!-- Title: dependencies Pages: 1 -->
<svg width="444pt" height="239pt"
 viewBox="0.00 0.00 444.00 238.80" xmlns="http://www.w3.org/2000/svg" xmlns:xlink="http://www.w3.org/1999/xlink">
<g id="graph0" class="graph" transform="scale(1 1) rotate(0) translate(4 234.8)">
<title>dependencies</title>
<polygon fill="white" stroke="transparent" points="-4,4 -4,-234.8 440,-234.8 440,4 -4,4"/>
<text text-anchor="middle" x="218" y="-8.2" font-family="sans-serif" font-size="14.00">dependencies</text>
<g id="clust1" class="cluster">
<title>cluster_MessagesDemoModule</title>
<polygon fill="none" stroke="black" stroke-dasharray="1,5" points="8,-32.8 8,-222.8 428,-222.8 428,-32.8 8,-32.8"/>
</g>
<g id="clust3" class="cluster">
<title>cluster_MessagesDemoModule_MessagesDemoComponent_providers</title>
<polygon fill="none" stroke="black" points="234,-40.8 234,-157.8 420,-157.8 420,-40.8 234,-40.8"/>
</g>
<g id="clust4" class="cluster">
<title>cluster_MessagesDemoModule_imports</title>
<polygon fill="none" stroke="black" points="16,-105.8 16,-157.8 226,-157.8 226,-105.8 16,-105.8"/>
</g>
<!-- MessagesDemoComponent -->
<g id="node1" class="node">
<title>MessagesDemoComponent</title>
<polygon fill="#ffffb3" stroke="black" points="411.98,-149.8 242.02,-149.8 242.02,-113.8 411.98,-113.8 411.98,-149.8"/>
<text text-anchor="middle" x="327" y="-127.6" font-family="Times,serif" font-size="14.00">MessagesDemoComponent</text>
</g>
<!-- MessagesDemoModule -->
<g id="node2" class="node">
<title>MessagesDemoModule</title>
<polygon fill="#8dd3c7" stroke="black" points="298.2,-214.8 295.2,-218.8 274.2,-218.8 271.2,-214.8 149.8,-214.8 149.8,-178.8 298.2,-178.8 298.2,-214.8"/>
<text text-anchor="middle" x="224" y="-192.6" font-family="Times,serif" font-size="14.00">MessagesDemoModule</text>
</g>
<!-- MessagesDemoComponent&#45;&gt;MessagesDemoModule -->
<g id="edge1" class="edge">
<title>MessagesDemoComponent&#45;&gt;MessagesDemoModule</title>
<path fill="none" stroke="black" d="M270.06,-149.91C270.06,-149.91 270.06,-168.79 270.06,-168.79"/>
<polygon fill="black" stroke="black" points="266.56,-168.79 270.06,-178.79 273.56,-168.79 266.56,-168.79"/>
</g>
<!-- MessageService -->
<g id="node3" class="node">
<title>MessageService</title>
<ellipse fill="#fdb462" stroke="black" cx="327" cy="-66.8" rx="73.57" ry="18"/>
<text text-anchor="middle" x="327" y="-62.6" font-family="Times,serif" font-size="14.00">MessageService</text>
</g>
<!-- MessageService&#45;&gt;MessagesDemoComponent -->
<g id="edge2" class="edge">
<title>MessageService&#45;&gt;MessagesDemoComponent</title>
<path fill="none" stroke="black" d="M327,-84.91C327,-84.91 327,-103.79 327,-103.79"/>
<polygon fill="black" stroke="black" points="323.5,-103.79 327,-113.79 330.5,-103.79 323.5,-103.79"/>
</g>
<!-- MessagesDemoRoutingModule -->
<g id="node4" class="node">
<title>MessagesDemoRoutingModule</title>
<polygon fill="#8dd3c7" stroke="black" points="217.82,-149.8 214.82,-153.8 193.82,-153.8 190.82,-149.8 24.18,-149.8 24.18,-113.8 217.82,-113.8 217.82,-149.8"/>
<text text-anchor="middle" x="121" y="-127.6" font-family="Times,serif" font-size="14.00">MessagesDemoRoutingModule</text>
</g>
<!-- MessagesDemoRoutingModule&#45;&gt;MessagesDemoModule -->
<g id="edge3" class="edge">
<title>MessagesDemoRoutingModule&#45;&gt;MessagesDemoModule</title>
<path fill="none" stroke="black" d="M183.78,-149.91C183.78,-149.91 183.78,-168.79 183.78,-168.79"/>
<polygon fill="black" stroke="black" points="180.28,-168.79 183.78,-178.79 187.28,-168.79 180.28,-168.79"/>
</g>
</g>
</svg>
