<?xml version="1.0" encoding="UTF-8" standalone="no"?>
<!DOCTYPE svg PUBLIC "-//W3C//DTD SVG 1.1//EN"
 "http://www.w3.org/Graphics/SVG/1.1/DTD/svg11.dtd">
<!-- Generated by graphviz version 5.0.0 (20220707.1540)
 -->
<!-- Title: dependencies Pages: 1 -->
<svg width="398pt" height="174pt"
 viewBox="0.00 0.00 398.00 173.80" xmlns="http://www.w3.org/2000/svg" xmlns:xlink="http://www.w3.org/1999/xlink">
<g id="graph0" class="graph" transform="scale(1 1) rotate(0) translate(4 169.8)">
<title>dependencies</title>
<polygon fill="white" stroke="transparent" points="-4,4 -4,-169.8 394,-169.8 394,4 -4,4"/>
<text text-anchor="middle" x="195" y="-8.2" font-family="sans-serif" font-size="14.00">dependencies</text>
<g id="clust1" class="cluster">
<title>cluster_TableDemoModule</title>
<polygon fill="none" stroke="black" stroke-dasharray="1,5" points="8,-32.8 8,-157.8 382,-157.8 382,-32.8 8,-32.8"/>
</g>
<g id="clust2" class="cluster">
<title>cluster_TableDemoModule_declarations</title>
<polygon fill="none" stroke="black" points="210,-40.8 210,-92.8 374,-92.8 374,-40.8 210,-40.8"/>
</g>
<g id="clust4" class="cluster">
<title>cluster_TableDemoModule_imports</title>
<polygon fill="none" stroke="black" points="16,-40.8 16,-92.8 202,-92.8 202,-40.8 16,-40.8"/>
</g>
<!-- TableDemoComponent -->
<g id="node1" class="node">
<title>TableDemoComponent</title>
<polygon fill="#ffffb3" stroke="black" points="365.91,-84.8 218.09,-84.8 218.09,-48.8 365.91,-48.8 365.91,-84.8"/>
<text text-anchor="middle" x="292" y="-62.6" font-family="Times,serif" font-size="14.00">TableDemoComponent</text>
</g>
<!-- TableDemoModule -->
<g id="node2" class="node">
<title>TableDemoModule</title>
<polygon fill="#8dd3c7" stroke="black" points="262.64,-149.8 259.64,-153.8 238.64,-153.8 235.64,-149.8 137.36,-149.8 137.36,-113.8 262.64,-113.8 262.64,-149.8"/>
<text text-anchor="middle" x="200" y="-127.6" font-family="Times,serif" font-size="14.00">TableDemoModule</text>
</g>
<!-- TableDemoComponent&#45;&gt;TableDemoModule -->
<g id="edge1" class="edge">
<title>TableDemoComponent&#45;&gt;TableDemoModule</title>
<path fill="none" stroke="black" d="M240.56,-84.91C240.56,-84.91 240.56,-103.79 240.56,-103.79"/>
<polygon fill="black" stroke="black" points="237.06,-103.79 240.56,-113.79 244.06,-103.79 237.06,-103.79"/>
</g>
<!-- TableDemoRoutingModule -->
<g id="node3" class="node">
<title>TableDemoRoutingModule</title>
<polygon fill="#8dd3c7" stroke="black" points="194.25,-84.8 191.25,-88.8 170.25,-88.8 167.25,-84.8 23.75,-84.8 23.75,-48.8 194.25,-48.8 194.25,-84.8"/>
<text text-anchor="middle" x="109" y="-62.6" font-family="Times,serif" font-size="14.00">TableDemoRoutingModule</text>
</g>
<!-- TableDemoRoutingModule&#45;&gt;TableDemoModule -->
<g id="edge2" class="edge">
<title>TableDemoRoutingModule&#45;&gt;TableDemoModule</title>
<path fill="none" stroke="black" d="M165.78,-84.91C165.78,-84.91 165.78,-103.79 165.78,-103.79"/>
<polygon fill="black" stroke="black" points="162.28,-103.79 165.78,-113.79 169.28,-103.79 162.28,-103.79"/>
</g>
</g>
</svg>
