<?xml version="1.0" encoding="UTF-8" standalone="no"?>
<!DOCTYPE svg PUBLIC "-//W3C//DTD SVG 1.1//EN"
 "http://www.w3.org/Graphics/SVG/1.1/DTD/svg11.dtd">
<!-- Generated by graphviz version 5.0.0 (20220707.1540)
 -->
<!-- Title: dependencies Pages: 1 -->
<svg width="1665pt" height="247pt"
 viewBox="0.00 0.00 1665.00 246.80" xmlns="http://www.w3.org/2000/svg" xmlns:xlink="http://www.w3.org/1999/xlink">
<g id="graph0" class="graph" transform="scale(1 1) rotate(0) translate(4 242.8)">
<title>dependencies</title>
<polygon fill="white" stroke="transparent" points="-4,4 -4,-242.8 1661,-242.8 1661,4 -4,4"/>
<text text-anchor="middle" x="828.5" y="-8.2" font-family="sans-serif" font-size="14.00">dependencies</text>
<g id="clust1" class="cluster">
<title>cluster_AppModule</title>
<polygon fill="none" stroke="black" stroke-dasharray="1,5" points="8,-32.8 8,-230.8 1649,-230.8 1649,-32.8 8,-32.8"/>
</g>
<g id="clust2" class="cluster">
<title>cluster_AppModule_declarations</title>
<polygon fill="none" stroke="black" points="1367,-40.8 1367,-92.8 1641,-92.8 1641,-40.8 1367,-40.8"/>
</g>
<g id="clust7" class="cluster">
<title>cluster_AppModule_bootstrap</title>
<polygon fill="none" stroke="black" points="754,-170.8 754,-222.8 878,-222.8 878,-170.8 754,-170.8"/>
</g>
<g id="clust8" class="cluster">
<title>cluster_AppModule_providers</title>
<polygon fill="none" stroke="black" points="310,-40.8 310,-92.8 1359,-92.8 1359,-40.8 310,-40.8"/>
</g>
<g id="clust5" class="cluster">
<title>cluster_AppModule_imports</title>
<polygon fill="none" stroke="black" points="16,-40.8 16,-92.8 302,-92.8 302,-40.8 16,-40.8"/>
</g>
<!-- AppComponent -->
<g id="node1" class="node">
<title>AppComponent</title>
<polygon fill="#ffffb3" stroke="black" points="1632.94,-84.8 1527.06,-84.8 1527.06,-48.8 1632.94,-48.8 1632.94,-84.8"/>
<text text-anchor="middle" x="1580" y="-62.6" font-family="Times,serif" font-size="14.00">AppComponent</text>
</g>
<!-- AppModule -->
<g id="node3" class="node">
<title>AppModule</title>
<polygon fill="#8dd3c7" stroke="black" points="857.66,-149.8 854.66,-153.8 833.66,-153.8 830.66,-149.8 774.34,-149.8 774.34,-113.8 857.66,-113.8 857.66,-149.8"/>
<text text-anchor="middle" x="816" y="-127.6" font-family="Times,serif" font-size="14.00">AppModule</text>
</g>
<!-- AppComponent&#45;&gt;AppModule -->
<g id="edge1" class="edge">
<title>AppComponent&#45;&gt;AppModule</title>
<path fill="none" stroke="black" d="M1580,-85.05C1580,-107.82 1580,-143.8 1580,-143.8 1580,-143.8 867.89,-143.8 867.89,-143.8"/>
<polygon fill="black" stroke="black" points="867.89,-140.3 857.89,-143.8 867.89,-147.3 867.89,-140.3"/>
</g>
<!-- NotfoundComponent -->
<g id="node2" class="node">
<title>NotfoundComponent</title>
<polygon fill="#ffffb3" stroke="black" points="1509.49,-84.8 1374.51,-84.8 1374.51,-48.8 1509.49,-48.8 1509.49,-84.8"/>
<text text-anchor="middle" x="1442" y="-62.6" font-family="Times,serif" font-size="14.00">NotfoundComponent</text>
</g>
<!-- NotfoundComponent&#45;&gt;AppModule -->
<g id="edge2" class="edge">
<title>NotfoundComponent&#45;&gt;AppModule</title>
<path fill="none" stroke="black" d="M1442,-85.08C1442,-106.12 1442,-137.8 1442,-137.8 1442,-137.8 868.05,-137.8 868.05,-137.8"/>
<polygon fill="black" stroke="black" points="868.05,-134.3 858.05,-137.8 868.05,-141.3 868.05,-134.3"/>
</g>
<!-- AppComponent  -->
<g id="node6" class="node">
<title>AppComponent </title>
<polygon fill="#80b1d3" stroke="black" points="870.44,-214.8 761.56,-214.8 761.56,-178.8 870.44,-178.8 870.44,-214.8"/>
<text text-anchor="middle" x="816" y="-192.6" font-family="Times,serif" font-size="14.00">AppComponent </text>
</g>
<!-- AppModule&#45;&gt;AppComponent  -->
<g id="edge5" class="edge">
<title>AppModule&#45;&gt;AppComponent </title>
<path fill="none" stroke="black" stroke-dasharray="1,5" d="M816,-149.91C816,-149.91 816,-168.79 816,-168.79"/>
<polygon fill="black" stroke="black" points="812.5,-168.79 816,-178.79 819.5,-168.79 812.5,-168.79"/>
</g>
<!-- AppLayoutModule -->
<g id="node4" class="node">
<title>AppLayoutModule</title>
<polygon fill="#8dd3c7" stroke="black" points="293.82,-84.8 290.82,-88.8 269.82,-88.8 266.82,-84.8 170.18,-84.8 170.18,-48.8 293.82,-48.8 293.82,-84.8"/>
<text text-anchor="middle" x="232" y="-62.6" font-family="Times,serif" font-size="14.00">AppLayoutModule</text>
</g>
<!-- AppLayoutModule&#45;&gt;AppModule -->
<g id="edge3" class="edge">
<title>AppLayoutModule&#45;&gt;AppModule</title>
<path fill="none" stroke="black" d="M232,-85.08C232,-106.12 232,-137.8 232,-137.8 232,-137.8 764,-137.8 764,-137.8"/>
<polygon fill="black" stroke="black" points="764,-141.3 774,-137.8 764,-134.3 764,-141.3"/>
</g>
<!-- AppRoutingModule -->
<g id="node5" class="node">
<title>AppRoutingModule</title>
<polygon fill="#8dd3c7" stroke="black" points="152.28,-84.8 149.28,-88.8 128.28,-88.8 125.28,-84.8 23.72,-84.8 23.72,-48.8 152.28,-48.8 152.28,-84.8"/>
<text text-anchor="middle" x="88" y="-62.6" font-family="Times,serif" font-size="14.00">AppRoutingModule</text>
</g>
<!-- AppRoutingModule&#45;&gt;AppModule -->
<g id="edge4" class="edge">
<title>AppRoutingModule&#45;&gt;AppModule</title>
<path fill="none" stroke="black" d="M88,-85.05C88,-107.82 88,-143.8 88,-143.8 88,-143.8 764.24,-143.8 764.24,-143.8"/>
<polygon fill="black" stroke="black" points="764.24,-147.3 774.24,-143.8 764.24,-140.3 764.24,-147.3"/>
</g>
<!-- CountryService -->
<g id="node7" class="node">
<title>CountryService</title>
<ellipse fill="#fdb462" stroke="black" cx="1279" cy="-66.8" rx="71.79" ry="18"/>
<text text-anchor="middle" x="1279" y="-62.6" font-family="Times,serif" font-size="14.00">CountryService</text>
</g>
<!-- CountryService&#45;&gt;AppModule -->
<g id="edge6" class="edge">
<title>CountryService&#45;&gt;AppModule</title>
<path fill="none" stroke="black" d="M1279,-84.91C1279,-104.14 1279,-131.8 1279,-131.8 1279,-131.8 867.9,-131.8 867.9,-131.8"/>
<polygon fill="black" stroke="black" points="867.9,-128.3 857.9,-131.8 867.9,-135.3 867.9,-128.3"/>
</g>
<!-- CustomerService -->
<g id="node8" class="node">
<title>CustomerService</title>
<ellipse fill="#fdb462" stroke="black" cx="1112" cy="-66.8" rx="77.59" ry="18"/>
<text text-anchor="middle" x="1112" y="-62.6" font-family="Times,serif" font-size="14.00">CustomerService</text>
</g>
<!-- CustomerService&#45;&gt;AppModule -->
<g id="edge7" class="edge">
<title>CustomerService&#45;&gt;AppModule</title>
<path fill="none" stroke="black" d="M1112,-84.82C1112,-102.17 1112,-125.8 1112,-125.8 1112,-125.8 867.78,-125.8 867.78,-125.8"/>
<polygon fill="black" stroke="black" points="867.78,-122.3 857.78,-125.8 867.78,-129.3 867.78,-122.3"/>
</g>
<!-- EventService -->
<g id="node9" class="node">
<title>EventService</title>
<ellipse fill="#fdb462" stroke="black" cx="954" cy="-66.8" rx="62.54" ry="18"/>
<text text-anchor="middle" x="954" y="-62.6" font-family="Times,serif" font-size="14.00">EventService</text>
</g>
<!-- EventService&#45;&gt;AppModule -->
<g id="edge8" class="edge">
<title>EventService&#45;&gt;AppModule</title>
<path fill="none" stroke="black" d="M954,-85.04C954,-100.37 954,-119.8 954,-119.8 954,-119.8 867.78,-119.8 867.78,-119.8"/>
<polygon fill="black" stroke="black" points="867.78,-116.3 857.78,-119.8 867.78,-123.3 867.78,-116.3"/>
</g>
<!-- IconService -->
<g id="node10" class="node">
<title>IconService</title>
<ellipse fill="#fdb462" stroke="black" cx="816" cy="-66.8" rx="57.3" ry="18"/>
<text text-anchor="middle" x="816" y="-62.6" font-family="Times,serif" font-size="14.00">IconService</text>
</g>
<!-- IconService&#45;&gt;AppModule -->
<g id="edge9" class="edge">
<title>IconService&#45;&gt;AppModule</title>
<path fill="none" stroke="black" d="M816,-84.91C816,-84.91 816,-103.79 816,-103.79"/>
<polygon fill="black" stroke="black" points="812.5,-103.79 816,-113.79 819.5,-103.79 812.5,-103.79"/>
</g>
<!-- NodeService -->
<g id="node11" class="node">
<title>NodeService</title>
<ellipse fill="#fdb462" stroke="black" cx="680" cy="-66.8" rx="60.82" ry="18"/>
<text text-anchor="middle" x="680" y="-62.6" font-family="Times,serif" font-size="14.00">NodeService</text>
</g>
<!-- NodeService&#45;&gt;AppModule -->
<g id="edge10" class="edge">
<title>NodeService&#45;&gt;AppModule</title>
<path fill="none" stroke="black" d="M680,-85.04C680,-100.37 680,-119.8 680,-119.8 680,-119.8 764.09,-119.8 764.09,-119.8"/>
<polygon fill="black" stroke="black" points="764.09,-123.3 774.09,-119.8 764.09,-116.3 764.09,-123.3"/>
</g>
<!-- PhotoService -->
<g id="node12" class="node">
<title>PhotoService</title>
<ellipse fill="#fdb462" stroke="black" cx="539" cy="-66.8" rx="62.56" ry="18"/>
<text text-anchor="middle" x="539" y="-62.6" font-family="Times,serif" font-size="14.00">PhotoService</text>
</g>
<!-- PhotoService&#45;&gt;AppModule -->
<g id="edge11" class="edge">
<title>PhotoService&#45;&gt;AppModule</title>
<path fill="none" stroke="black" d="M539,-84.82C539,-102.17 539,-125.8 539,-125.8 539,-125.8 764.23,-125.8 764.23,-125.8"/>
<polygon fill="black" stroke="black" points="764.23,-129.3 774.23,-125.8 764.23,-122.3 764.23,-129.3"/>
</g>
<!-- ProductService -->
<g id="node13" class="node">
<title>ProductService</title>
<ellipse fill="#fdb462" stroke="black" cx="388" cy="-66.8" rx="70.07" ry="18"/>
<text text-anchor="middle" x="388" y="-62.6" font-family="Times,serif" font-size="14.00">ProductService</text>
</g>
<!-- ProductService&#45;&gt;AppModule -->
<g id="edge12" class="edge">
<title>ProductService&#45;&gt;AppModule</title>
<path fill="none" stroke="black" d="M388,-84.91C388,-104.14 388,-131.8 388,-131.8 388,-131.8 764.18,-131.8 764.18,-131.8"/>
<polygon fill="black" stroke="black" points="764.18,-135.3 774.18,-131.8 764.18,-128.3 764.18,-135.3"/>
</g>
</g>
</svg>
