<?xml version="1.0" encoding="UTF-8" standalone="no"?>
<!DOCTYPE svg PUBLIC "-//W3C//DTD SVG 1.1//EN"
 "http://www.w3.org/Graphics/SVG/1.1/DTD/svg11.dtd">
<!-- Generated by graphviz version 5.0.0 (20220707.1540)
 -->
<!-- Title: dependencies Pages: 1 -->
<svg width="360pt" height="239pt"
 viewBox="0.00 0.00 360.00 238.80" xmlns="http://www.w3.org/2000/svg" xmlns:xlink="http://www.w3.org/1999/xlink">
<g id="graph0" class="graph" transform="scale(1 1) rotate(0) translate(4 234.8)">
<title>dependencies</title>
<polygon fill="white" stroke="transparent" points="-4,4 -4,-234.8 356,-234.8 356,4 -4,4"/>
<text text-anchor="middle" x="176" y="-8.2" font-family="sans-serif" font-size="14.00">dependencies</text>
<g id="clust1" class="cluster">
<title>cluster_CrudModule</title>
<polygon fill="none" stroke="black" stroke-dasharray="1,5" points="8,-32.8 8,-222.8 344,-222.8 344,-32.8 8,-32.8"/>
</g>
<g id="clust3" class="cluster">
<title>cluster_CrudModule_CrudComponent_providers</title>
<polygon fill="none" stroke="black" points="172,-40.8 172,-157.8 336,-157.8 336,-40.8 172,-40.8"/>
</g>
<g id="clust4" class="cluster">
<title>cluster_CrudModule_imports</title>
<polygon fill="none" stroke="black" points="16,-105.8 16,-157.8 164,-157.8 164,-105.8 16,-105.8"/>
</g>
<!-- CrudComponent -->
<g id="node1" class="node">
<title>CrudComponent</title>
<polygon fill="#ffffb3" stroke="black" points="298.83,-149.8 189.17,-149.8 189.17,-113.8 298.83,-113.8 298.83,-149.8"/>
<text text-anchor="middle" x="244" y="-127.6" font-family="Times,serif" font-size="14.00">CrudComponent</text>
</g>
<!-- CrudModule -->
<g id="node2" class="node">
<title>CrudModule</title>
<polygon fill="#8dd3c7" stroke="black" points="210.55,-214.8 207.55,-218.8 186.55,-218.8 183.55,-214.8 123.45,-214.8 123.45,-178.8 210.55,-178.8 210.55,-214.8"/>
<text text-anchor="middle" x="167" y="-192.6" font-family="Times,serif" font-size="14.00">CrudModule</text>
</g>
<!-- CrudComponent&#45;&gt;CrudModule -->
<g id="edge1" class="edge">
<title>CrudComponent&#45;&gt;CrudModule</title>
<path fill="none" stroke="black" d="M200.06,-149.91C200.06,-149.91 200.06,-168.79 200.06,-168.79"/>
<polygon fill="black" stroke="black" points="196.56,-168.79 200.06,-178.79 203.56,-168.79 196.56,-168.79"/>
</g>
<!-- MessageService -->
<g id="node3" class="node">
<title>MessageService</title>
<ellipse fill="#fdb462" stroke="black" cx="254" cy="-66.8" rx="73.57" ry="18"/>
<text text-anchor="middle" x="254" y="-62.6" font-family="Times,serif" font-size="14.00">MessageService</text>
</g>
<!-- MessageService&#45;&gt;CrudComponent -->
<g id="edge2" class="edge">
<title>MessageService&#45;&gt;CrudComponent</title>
<path fill="none" stroke="black" d="M244,-84.91C244,-84.91 244,-103.79 244,-103.79"/>
<polygon fill="black" stroke="black" points="240.5,-103.79 244,-113.79 247.5,-103.79 240.5,-103.79"/>
</g>
<!-- CrudRoutingModule -->
<g id="node4" class="node">
<title>CrudRoutingModule</title>
<polygon fill="#8dd3c7" stroke="black" points="156.17,-149.8 153.17,-153.8 132.17,-153.8 129.17,-149.8 23.83,-149.8 23.83,-113.8 156.17,-113.8 156.17,-149.8"/>
<text text-anchor="middle" x="90" y="-127.6" font-family="Times,serif" font-size="14.00">CrudRoutingModule</text>
</g>
<!-- CrudRoutingModule&#45;&gt;CrudModule -->
<g id="edge3" class="edge">
<title>CrudRoutingModule&#45;&gt;CrudModule</title>
<path fill="none" stroke="black" d="M139.78,-149.91C139.78,-149.91 139.78,-168.79 139.78,-168.79"/>
<polygon fill="black" stroke="black" points="136.28,-168.79 139.78,-178.79 143.28,-168.79 136.28,-168.79"/>
</g>
</g>
</svg>
