<?xml version="1.0" encoding="UTF-8" standalone="no"?>
<!DOCTYPE svg PUBLIC "-//W3C//DTD SVG 1.1//EN"
 "http://www.w3.org/Graphics/SVG/1.1/DTD/svg11.dtd">
<!-- Generated by graphviz version 5.0.0 (20220707.1540)
 -->
<!-- Title: dependencies Pages: 1 -->
<svg width="552pt" height="174pt"
 viewBox="0.00 0.00 552.00 173.80" xmlns="http://www.w3.org/2000/svg" xmlns:xlink="http://www.w3.org/1999/xlink">
<g id="graph0" class="graph" transform="scale(1 1) rotate(0) translate(4 169.8)">
<title>dependencies</title>
<polygon fill="white" stroke="transparent" points="-4,4 -4,-169.8 548,-169.8 548,4 -4,4"/>
<text text-anchor="middle" x="272" y="-8.2" font-family="sans-serif" font-size="14.00">dependencies</text>
<g id="clust1" class="cluster">
<title>cluster_PrimeBlocksModule</title>
<polygon fill="none" stroke="black" stroke-dasharray="1,5" points="8,-32.8 8,-157.8 536,-157.8 536,-32.8 8,-32.8"/>
</g>
<g id="clust2" class="cluster">
<title>cluster_PrimeBlocksModule_declarations</title>
<polygon fill="none" stroke="black" points="218,-40.8 218,-92.8 528,-92.8 528,-40.8 218,-40.8"/>
</g>
<g id="clust5" class="cluster">
<title>cluster_PrimeBlocksModule_imports</title>
<polygon fill="none" stroke="black" points="16,-40.8 16,-92.8 210,-92.8 210,-40.8 16,-40.8"/>
</g>
<!-- BlockViewerComponent -->
<g id="node1" class="node">
<title>BlockViewerComponent</title>
<polygon fill="#ffffb3" stroke="black" points="519.97,-84.8 364.03,-84.8 364.03,-48.8 519.97,-48.8 519.97,-84.8"/>
<text text-anchor="middle" x="442" y="-62.6" font-family="Times,serif" font-size="14.00">BlockViewerComponent</text>
</g>
<!-- PrimeBlocksModule -->
<g id="node3" class="node">
<title>PrimeBlocksModule</title>
<polygon fill="#8dd3c7" stroke="black" points="351.88,-149.8 348.88,-153.8 327.88,-153.8 324.88,-149.8 220.12,-149.8 220.12,-113.8 351.88,-113.8 351.88,-149.8"/>
<text text-anchor="middle" x="286" y="-127.6" font-family="Times,serif" font-size="14.00">PrimeBlocksModule</text>
</g>
<!-- BlockViewerComponent&#45;&gt;PrimeBlocksModule -->
<g id="edge1" class="edge">
<title>BlockViewerComponent&#45;&gt;PrimeBlocksModule</title>
<path fill="none" stroke="black" d="M442,-84.91C442,-104.14 442,-131.8 442,-131.8 442,-131.8 362.16,-131.8 362.16,-131.8"/>
<polygon fill="black" stroke="black" points="362.16,-128.3 352.16,-131.8 362.16,-135.3 362.16,-128.3"/>
</g>
<!-- BlocksComponent -->
<g id="node2" class="node">
<title>BlocksComponent</title>
<polygon fill="#ffffb3" stroke="black" points="346.22,-84.8 225.78,-84.8 225.78,-48.8 346.22,-48.8 346.22,-84.8"/>
<text text-anchor="middle" x="286" y="-62.6" font-family="Times,serif" font-size="14.00">BlocksComponent</text>
</g>
<!-- BlocksComponent&#45;&gt;PrimeBlocksModule -->
<g id="edge2" class="edge">
<title>BlocksComponent&#45;&gt;PrimeBlocksModule</title>
<path fill="none" stroke="black" d="M286,-84.91C286,-84.91 286,-103.79 286,-103.79"/>
<polygon fill="black" stroke="black" points="282.5,-103.79 286,-113.79 289.5,-103.79 282.5,-103.79"/>
</g>
<!-- PrimeBlocksRoutingModule -->
<g id="node4" class="node">
<title>PrimeBlocksRoutingModule</title>
<polygon fill="#8dd3c7" stroke="black" points="201.5,-84.8 198.5,-88.8 177.5,-88.8 174.5,-84.8 24.5,-84.8 24.5,-48.8 201.5,-48.8 201.5,-84.8"/>
<text text-anchor="middle" x="113" y="-62.6" font-family="Times,serif" font-size="14.00">PrimeBlocksRoutingModule</text>
</g>
<!-- PrimeBlocksRoutingModule&#45;&gt;PrimeBlocksModule -->
<g id="edge3" class="edge">
<title>PrimeBlocksRoutingModule&#45;&gt;PrimeBlocksModule</title>
<path fill="none" stroke="black" d="M113,-84.91C113,-104.14 113,-131.8 113,-131.8 113,-131.8 210.1,-131.8 210.1,-131.8"/>
<polygon fill="black" stroke="black" points="210.1,-135.3 220.1,-131.8 210.1,-128.3 210.1,-135.3"/>
</g>
</g>
</svg>
