<?xml version="1.0" encoding="UTF-8" standalone="no"?>
<!DOCTYPE svg PUBLIC "-//W3C//DTD SVG 1.1//EN"
 "http://www.w3.org/Graphics/SVG/1.1/DTD/svg11.dtd">
<!-- Generated by graphviz version 5.0.0 (20220707.1540)
 -->
<!-- Title: dependencies Pages: 1 -->
<svg width="412pt" height="174pt"
 viewBox="0.00 0.00 412.00 173.80" xmlns="http://www.w3.org/2000/svg" xmlns:xlink="http://www.w3.org/1999/xlink">
<g id="graph0" class="graph" transform="scale(1 1) rotate(0) translate(4 169.8)">
<title>dependencies</title>
<polygon fill="white" stroke="transparent" points="-4,4 -4,-169.8 408,-169.8 408,4 -4,4"/>
<text text-anchor="middle" x="202" y="-8.2" font-family="sans-serif" font-size="14.00">dependencies</text>
<g id="clust1" class="cluster">
<title>cluster_ButtonDemoModule</title>
<polygon fill="none" stroke="black" stroke-dasharray="1,5" points="8,-32.8 8,-157.8 396,-157.8 396,-32.8 8,-32.8"/>
</g>
<g id="clust4" class="cluster">
<title>cluster_ButtonDemoModule_imports</title>
<polygon fill="none" stroke="black" points="194,-40.8 194,-92.8 388,-92.8 388,-40.8 194,-40.8"/>
</g>
<g id="clust2" class="cluster">
<title>cluster_ButtonDemoModule_declarations</title>
<polygon fill="none" stroke="black" points="16,-40.8 16,-92.8 186,-92.8 186,-40.8 16,-40.8"/>
</g>
<!-- ButtonDemoComponent -->
<g id="node1" class="node">
<title>ButtonDemoComponent</title>
<polygon fill="#ffffb3" stroke="black" points="177.66,-84.8 24.34,-84.8 24.34,-48.8 177.66,-48.8 177.66,-84.8"/>
<text text-anchor="middle" x="101" y="-62.6" font-family="Times,serif" font-size="14.00">ButtonDemoComponent</text>
</g>
<!-- ButtonDemoModule -->
<g id="node2" class="node">
<title>ButtonDemoModule</title>
<polygon fill="#8dd3c7" stroke="black" points="261.88,-149.8 258.88,-153.8 237.88,-153.8 234.88,-149.8 130.12,-149.8 130.12,-113.8 261.88,-113.8 261.88,-149.8"/>
<text text-anchor="middle" x="196" y="-127.6" font-family="Times,serif" font-size="14.00">ButtonDemoModule</text>
</g>
<!-- ButtonDemoComponent&#45;&gt;ButtonDemoModule -->
<g id="edge1" class="edge">
<title>ButtonDemoComponent&#45;&gt;ButtonDemoModule</title>
<path fill="none" stroke="black" d="M153.94,-84.91C153.94,-84.91 153.94,-103.79 153.94,-103.79"/>
<polygon fill="black" stroke="black" points="150.44,-103.79 153.94,-113.79 157.44,-103.79 150.44,-103.79"/>
</g>
<!-- ButtonDemoRoutingModule -->
<g id="node3" class="node">
<title>ButtonDemoRoutingModule</title>
<polygon fill="#8dd3c7" stroke="black" points="379.5,-84.8 376.5,-88.8 355.5,-88.8 352.5,-84.8 202.5,-84.8 202.5,-48.8 379.5,-48.8 379.5,-84.8"/>
<text text-anchor="middle" x="291" y="-62.6" font-family="Times,serif" font-size="14.00">ButtonDemoRoutingModule</text>
</g>
<!-- ButtonDemoRoutingModule&#45;&gt;ButtonDemoModule -->
<g id="edge2" class="edge">
<title>ButtonDemoRoutingModule&#45;&gt;ButtonDemoModule</title>
<path fill="none" stroke="black" d="M232.22,-84.91C232.22,-84.91 232.22,-103.79 232.22,-103.79"/>
<polygon fill="black" stroke="black" points="228.72,-103.79 232.22,-113.79 235.72,-103.79 228.72,-103.79"/>
</g>
</g>
</svg>
