<?xml version="1.0" encoding="UTF-8" standalone="no"?>
<!DOCTYPE svg PUBLIC "-//W3C//DTD SVG 1.1//EN"
 "http://www.w3.org/Graphics/SVG/1.1/DTD/svg11.dtd">
<!-- Generated by graphviz version 5.0.0 (20220707.1540)
 -->
<!-- Title: dependencies Pages: 1 -->
<svg width="406pt" height="174pt"
 viewBox="0.00 0.00 406.00 173.80" xmlns="http://www.w3.org/2000/svg" xmlns:xlink="http://www.w3.org/1999/xlink">
<g id="graph0" class="graph" transform="scale(1 1) rotate(0) translate(4 169.8)">
<title>dependencies</title>
<polygon fill="white" stroke="transparent" points="-4,4 -4,-169.8 402,-169.8 402,4 -4,4"/>
<text text-anchor="middle" x="199" y="-8.2" font-family="sans-serif" font-size="14.00">dependencies</text>
<g id="clust1" class="cluster">
<title>cluster_MediaDemoModule</title>
<polygon fill="none" stroke="black" stroke-dasharray="1,5" points="8,-32.8 8,-157.8 390,-157.8 390,-32.8 8,-32.8"/>
</g>
<g id="clust2" class="cluster">
<title>cluster_MediaDemoModule_declarations</title>
<polygon fill="none" stroke="black" points="214,-40.8 214,-92.8 382,-92.8 382,-40.8 214,-40.8"/>
</g>
<g id="clust4" class="cluster">
<title>cluster_MediaDemoModule_imports</title>
<polygon fill="none" stroke="black" points="16,-40.8 16,-92.8 206,-92.8 206,-40.8 16,-40.8"/>
</g>
<!-- MediaDemoComponent -->
<g id="node1" class="node">
<title>MediaDemoComponent</title>
<polygon fill="#ffffb3" stroke="black" points="373.81,-84.8 222.19,-84.8 222.19,-48.8 373.81,-48.8 373.81,-84.8"/>
<text text-anchor="middle" x="298" y="-62.6" font-family="Times,serif" font-size="14.00">MediaDemoComponent</text>
</g>
<!-- MediaDemoModule -->
<g id="node2" class="node">
<title>MediaDemoModule</title>
<polygon fill="#8dd3c7" stroke="black" points="268.53,-149.8 265.53,-153.8 244.53,-153.8 241.53,-149.8 139.47,-149.8 139.47,-113.8 268.53,-113.8 268.53,-149.8"/>
<text text-anchor="middle" x="204" y="-127.6" font-family="Times,serif" font-size="14.00">MediaDemoModule</text>
</g>
<!-- MediaDemoComponent&#45;&gt;MediaDemoModule -->
<g id="edge1" class="edge">
<title>MediaDemoComponent&#45;&gt;MediaDemoModule</title>
<path fill="none" stroke="black" d="M245.56,-84.91C245.56,-84.91 245.56,-103.79 245.56,-103.79"/>
<polygon fill="black" stroke="black" points="242.06,-103.79 245.56,-113.79 249.06,-103.79 242.06,-103.79"/>
</g>
<!-- MediaDemoRoutingModule -->
<g id="node3" class="node">
<title>MediaDemoRoutingModule</title>
<polygon fill="#8dd3c7" stroke="black" points="198.15,-84.8 195.15,-88.8 174.15,-88.8 171.15,-84.8 23.85,-84.8 23.85,-48.8 198.15,-48.8 198.15,-84.8"/>
<text text-anchor="middle" x="111" y="-62.6" font-family="Times,serif" font-size="14.00">MediaDemoRoutingModule</text>
</g>
<!-- MediaDemoRoutingModule&#45;&gt;MediaDemoModule -->
<g id="edge2" class="edge">
<title>MediaDemoRoutingModule&#45;&gt;MediaDemoModule</title>
<path fill="none" stroke="black" d="M168.78,-84.91C168.78,-84.91 168.78,-103.79 168.78,-103.79"/>
<polygon fill="black" stroke="black" points="165.28,-103.79 168.78,-113.79 172.28,-103.79 165.28,-103.79"/>
</g>
</g>
</svg>
